<svg width="1400" height="942" xmlns="http://www.w3.org/2000/svg"><g><path d="M-105.51722212694585,-72.23139661364257L-125.80577795393765,883.1536886841059L-114.95984709821641,677.1693701203912Z" fill="#d98d88" stroke="#d98d88"></path><path d="M-105.51722212694585,-72.23139661364257L-114.95984709821641,677.1693701203912L-103.05638057179749,483.39778712019324Z" fill="#df8e7f" stroke="#df8e7f"></path><path d="M-105.51722212694585,-72.23139661364257L-103.05638057179749,483.39778712019324L-62.49768214300275,200.06056152284145Z" fill="#e16f60" stroke="#e16f60"></path><path d="M-105.51722212694585,-72.23139661364257L-62.49768214300275,200.06056152284145L-55.66171900369227,56.924895560368896Z" fill="#e34756" stroke="#e34756"></path><path d="M-105.51722212694585,-72.23139661364257L-55.66171900369227,56.924895560368896L33.02037561312318,-128.83427278138697Z" fill="#e5325b" stroke="#e5325b"></path><path d="M33.02037561312318,-128.83427278138697L-55.66171900369227,56.924895560368896L31.233547450974584,119.50435431674123Z" fill="#ea4956" stroke="#ea4956"></path><path d="M33.02037561312318,-128.83427278138697L31.233547450974584,119.50435431674123L207.1736815944314,28.65513243712485Z" fill="#f35353" stroke="#f35353"></path><path d="M33.02037561312318,-128.83427278138697L207.1736815944314,28.65513243712485L266.01484104059637,-28.225650284439325Z" fill="#fa5555" stroke="#fa5555"></path><path d="M33.02037561312318,-128.83427278138697L266.01484104059637,-28.225650284439325L349.8024127352983,-66.09098296612501Z" fill="#fb575b" stroke="#fb575b"></path><path d="M33.02037561312318,-128.83427278138697L349.8024127352983,-66.09098296612501L472.0694278366864,-84.57653830759227Z" fill="#fd6163" stroke="#fd6163"></path><path d="M33.02037561312318,-128.83427278138697L472.0694278366864,-84.57653830759227L733.662239452824,-99.36987650580704Z" fill="#fe7474" stroke="#fe7474"></path><path d="M33.02037561312318,-128.83427278138697L733.662239452824,-99.36987650580704L1278.9053366146982,-110.56077992543578Z" fill="#e68084" stroke="#e68084"></path><path d="M266.01484104059637,-28.225650284439325L207.1736815944314,28.65513243712485L349.4968097191304,110.31539437361062Z" fill="#fd7e5a" stroke="#fd7e5a"></path><path d="M266.01484104059637,-28.225650284439325L349.4968097191304,110.31539437361062L349.8024127352983,-66.09098296612501Z" fill="#fe8061" stroke="#fe8061"></path><path d="M349.8024127352983,-66.09098296612501L349.4968097191304,110.31539437361062L472.0694278366864,-84.57653830759227Z" fill="#fe866c" stroke="#fe866c"></path><path d="M472.0694278366864,-84.57653830759227L349.4968097191304,110.31539437361062L582.2367485426366,38.69338813237846Z" fill="#fe9a73" stroke="#fe9a73"></path><path d="M472.0694278366864,-84.57653830759227L582.2367485426366,38.69338813237846L733.662239452824,-99.36987650580704Z" fill="#f4937d" stroke="#f4937d"></path><path d="M733.662239452824,-99.36987650580704L582.2367485426366,38.69338813237846L731.908661769703,29.587391149252653Z" fill="#e6987e" stroke="#e6987e"></path><path d="M733.662239452824,-99.36987650580704L731.908661769703,29.587391149252653L840.6291362084448,-93.67582040838897Z" fill="#d68784" stroke="#d68784"></path><path d="M733.662239452824,-99.36987650580704L840.6291362084448,-93.67582040838897L995.6918812729418,-98.3342221006751Z" fill="#c27688" stroke="#c27688"></path><path d="M733.662239452824,-99.36987650580704L995.6918812729418,-98.3342221006751L1278.9053366146982,-110.56077992543578Z" fill="#a6608d" stroke="#a6608d"></path><path d="M840.6291362084448,-93.67582040838897L731.908661769703,29.587391149252653L810.8942644111812,71.99285158887506Z" fill="#d09381" stroke="#d09381"></path><path d="M840.6291362084448,-93.67582040838897L810.8942644111812,71.99285158887506L974.8849642742425,22.98288842663169Z" fill="#be8b82" stroke="#be8b82"></path><path d="M840.6291362084448,-93.67582040838897L974.8849642742425,22.98288842663169L995.6918812729418,-98.3342221006751Z" fill="#b17786" stroke="#b17786"></path><path d="M995.6918812729418,-98.3342221006751L974.8849642742425,22.98288842663169L1107.757717212662,-26.882490310817957Z" fill="#a26c8b" stroke="#a26c8b"></path><path d="M995.6918812729418,-98.3342221006751L1107.757717212662,-26.882490310817957L1278.9053366146982,-110.56077992543578Z" fill="#914f96" stroke="#914f96"></path><path d="M1107.757717212662,-26.882490310817957L974.8849642742425,22.98288842663169L1128.8799641188234,23.095792047679424Z" fill="#9b6d8c" stroke="#9b6d8c"></path><path d="M1107.757717212662,-26.882490310817957L1128.8799641188234,23.095792047679424L1278.9053366146982,-110.56077992543578Z" fill="#8a5097" stroke="#8a5097"></path><path d="M1278.9053366146982,-110.56077992543578L1128.8799641188234,23.095792047679424L1314.4425672478974,61.15020755678415Z" fill="#7f4a9a" stroke="#7f4a9a"></path><path d="M1278.9053366146982,-110.56077992543578L1314.4425672478974,61.15020755678415L1438.2549713831395,-52.9400344658643Z" fill="#7f31a4" stroke="#7f31a4"></path><path d="M1438.2549713831395,-52.9400344658643L1314.4425672478974,61.15020755678415L1449.892749460414,127.64164413325489Z" fill="#7f39a4" stroke="#7f39a4"></path><path d="M-55.66171900369227,56.924895560368896L-62.49768214300275,200.06056152284145L31.233547450974584,119.50435431674123Z" fill="#e75e52" stroke="#e75e52"></path><path d="M31.233547450974584,119.50435431674123L-62.49768214300275,200.06056152284145L112.05297729000449,234.85377117991447Z" fill="#ed7a59" stroke="#ed7a59"></path><path d="M31.233547450974584,119.50435431674123L112.05297729000449,234.85377117991447L207.1736815944314,28.65513243712485Z" fill="#f6754d" stroke="#f6754d"></path><path d="M207.1736815944314,28.65513243712485L112.05297729000449,234.85377117991447L174.1976496297866,248.34361201152205Z" fill="#fa8b53" stroke="#fa8b53"></path><path d="M207.1736815944314,28.65513243712485L174.1976496297866,248.34361201152205L349.4968097191304,110.31539437361062Z" fill="#fc8e54" stroke="#fc8e54"></path><path d="M349.4968097191304,110.31539437361062L174.1976496297866,248.34361201152205L431.1406729929149,216.9557846803218Z" fill="#feb265" stroke="#feb265"></path><path d="M349.4968097191304,110.31539437361062L431.1406729929149,216.9557846803218L582.2367485426366,38.69338813237846Z" fill="#ffb16d" stroke="#ffb16d"></path><path d="M582.2367485426366,38.69338813237846L431.1406729929149,216.9557846803218L539.1414540074766,282.2792485076934Z" fill="#fbc979" stroke="#fbc979"></path><path d="M582.2367485426366,38.69338813237846L539.1414540074766,282.2792485076934L715.8027306385338,261.528114695102Z" fill="#f3d47f" stroke="#f3d47f"></path><path d="M582.2367485426366,38.69338813237846L715.8027306385338,261.528114695102L731.908661769703,29.587391149252653Z" fill="#e8b577" stroke="#e8b577"></path><path d="M731.908661769703,29.587391149252653L715.8027306385338,261.528114695102L810.8942644111812,71.99285158887506Z" fill="#d9b27a" stroke="#d9b27a"></path><path d="M810.8942644111812,71.99285158887506L715.8027306385338,261.528114695102L883.9507994335145,186.5264829620719Z" fill="#cfbf83" stroke="#cfbf83"></path><path d="M810.8942644111812,71.99285158887506L883.9507994335145,186.5264829620719L930.5519735533744,177.1215729508549Z" fill="#bfb07f" stroke="#bfb07f"></path><path d="M810.8942644111812,71.99285158887506L930.5519735533744,177.1215729508549L974.8849642742425,22.98288842663169Z" fill="#b89e7c" stroke="#b89e7c"></path><path d="M974.8849642742425,22.98288842663169L930.5519735533744,177.1215729508549L1128.8799641188234,23.095792047679424Z" fill="#a58984" stroke="#a58984"></path><path d="M1128.8799641188234,23.095792047679424L930.5519735533744,177.1215729508549L1133.5472191404551,260.8893277309835Z" fill="#9c958b" stroke="#9c958b"></path><path d="M1128.8799641188234,23.095792047679424L1133.5472191404551,260.8893277309835L1287.8123549278826,243.3951334375888Z" fill="#888697" stroke="#888697"></path><path d="M1128.8799641188234,23.095792047679424L1287.8123549278826,243.3951334375888L1314.4425672478974,61.15020755678415Z" fill="#806694" stroke="#806694"></path><path d="M1314.4425672478974,61.15020755678415L1287.8123549278826,243.3951334375888L1449.892749460414,127.64164413325489Z" fill="#805c9f" stroke="#805c9f"></path><path d="M1449.892749460414,127.64164413325489L1287.8123549278826,243.3951334375888L1453.031822545454,188.58033115044236Z" fill="#8061a9" stroke="#8061a9"></path><path d="M-62.49768214300275,200.06056152284145L-103.05638057179749,483.39778712019324L-27.22513172775507,356.7504252959043Z" fill="#e4947c" stroke="#e4947c"></path><path d="M-62.49768214300275,200.06056152284145L-27.22513172775507,356.7504252959043L112.05297729000449,234.85377117991447Z" fill="#eb8e67" stroke="#eb8e67"></path><path d="M112.05297729000449,234.85377117991447L-27.22513172775507,356.7504252959043L100.56990676559508,326.19431706145406Z" fill="#f09f6e" stroke="#f09f6e"></path><path d="M112.05297729000449,234.85377117991447L100.56990676559508,326.19431706145406L174.1976496297866,248.34361201152205Z" fill="#f7a164" stroke="#f7a164"></path><path d="M174.1976496297866,248.34361201152205L100.56990676559508,326.19431706145406L242.88504428230226,410.8293905016035Z" fill="#fab571" stroke="#fab571"></path><path d="M174.1976496297866,248.34361201152205L242.88504428230226,410.8293905016035L431.1406729929149,216.9557846803218Z" fill="#fdc574" stroke="#fdc574"></path><path d="M431.1406729929149,216.9557846803218L242.88504428230226,410.8293905016035L366.27361544407904,416.78145225159824Z" fill="#fedc88" stroke="#fedc88"></path><path d="M431.1406729929149,216.9557846803218L366.27361544407904,416.78145225159824L539.1414540074766,282.2792485076934Z" fill="#ffe38c" stroke="#ffe38c"></path><path d="M539.1414540074766,282.2792485076934L366.27361544407904,416.78145225159824L563.6165596637875,417.3254193831235Z" fill="#fdf19b" stroke="#fdf19b"></path><path d="M539.1414540074766,282.2792485076934L563.6165596637875,417.3254193831235L704.0977157559246,378.3112914953381Z" fill="#f4f99f" stroke="#f4f99f"></path><path d="M539.1414540074766,282.2792485076934L704.0977157559246,378.3112914953381L715.8027306385338,261.528114695102Z" fill="#ecee97" stroke="#ecee97"></path><path d="M715.8027306385338,261.528114695102L704.0977157559246,378.3112914953381L863.4649990685284,422.97273740172386Z" fill="#d8efa5" stroke="#d8efa5"></path><path d="M715.8027306385338,261.528114695102L863.4649990685284,422.97273740172386L883.9507994335145,186.5264829620719Z" fill="#cbdd98" stroke="#cbdd98"></path><path d="M883.9507994335145,186.5264829620719L863.4649990685284,422.97273740172386L991.1877388972789,381.44792187027633Z" fill="#b7dea1" stroke="#b7dea1"></path><path d="M883.9507994335145,186.5264829620719L991.1877388972789,381.44792187027633L930.5519735533744,177.1215729508549Z" fill="#b2ca90" stroke="#b2ca90"></path><path d="M930.5519735533744,177.1215729508549L991.1877388972789,381.44792187027633L1114.897281518206,327.52581235952675Z" fill="#a5c5a0" stroke="#a5c5a0"></path><path d="M930.5519735533744,177.1215729508549L1114.897281518206,327.52581235952675L1133.5472191404551,260.8893277309835Z" fill="#9db49b" stroke="#9db49b"></path><path d="M1133.5472191404551,260.8893277309835L1114.897281518206,327.52581235952675L1247.5322428531945,388.6408812459558Z" fill="#8bafb2" stroke="#8bafb2"></path><path d="M1133.5472191404551,260.8893277309835L1247.5322428531945,388.6408812459558L1287.8123549278826,243.3951334375888Z" fill="#829eb0" stroke="#829eb0"></path><path d="M1287.8123549278826,243.3951334375888L1247.5322428531945,388.6408812459558L1429.1355069167912,345.64325141720474Z" fill="#8092be" stroke="#8092be"></path><path d="M1287.8123549278826,243.3951334375888L1429.1355069167912,345.64325141720474L1453.031822545454,188.58033115044236Z" fill="#8078b5" stroke="#8078b5"></path><path d="M1453.031822545454,188.58033115044236L1429.1355069167912,345.64325141720474L1445.1004872657359,956.4281565416604Z" fill="#7a81d6" stroke="#7a81d6"></path><path d="M-27.22513172775507,356.7504252959043L-103.05638057179749,483.39778712019324L65.09600420482457,511.14361516200006Z" fill="#e89b82" stroke="#e89b82"></path><path d="M-27.22513172775507,356.7504252959043L65.09600420482457,511.14361516200006L100.56990676559508,326.19431706145406Z" fill="#efa67c" stroke="#efa67c"></path><path d="M100.56990676559508,326.19431706145406L65.09600420482457,511.14361516200006L222.2988931182772,472.58557241410017Z" fill="#f7b27b" stroke="#f7b27b"></path><path d="M100.56990676559508,326.19431706145406L222.2988931182772,472.58557241410017L242.88504428230226,410.8293905016035Z" fill="#fbbd7b" stroke="#fbbd7b"></path><path d="M242.88504428230226,410.8293905016035L222.2988931182772,472.58557241410017L317.5850570295006,517.5697848200798Z" fill="#fdcc86" stroke="#fdcc86"></path><path d="M242.88504428230226,410.8293905016035L317.5850570295006,517.5697848200798L366.27361544407904,416.78145225159824Z" fill="#fed78a" stroke="#fed78a"></path><path d="M366.27361544407904,416.78145225159824L317.5850570295006,517.5697848200798L469.6567089948803,485.54547945968807Z" fill="#fee395" stroke="#fee395"></path><path d="M366.27361544407904,416.78145225159824L469.6567089948803,485.54547945968807L563.6165596637875,417.3254193831235Z" fill="#fff09e" stroke="#fff09e"></path><path d="M563.6165596637875,417.3254193831235L469.6567089948803,485.54547945968807L664.7335334960371,486.8879782129079Z" fill="#f7f7a4" stroke="#f7f7a4"></path><path d="M563.6165596637875,417.3254193831235L664.7335334960371,486.8879782129079L704.0977157559246,378.3112914953381Z" fill="#eef8a5" stroke="#eef8a5"></path><path d="M704.0977157559246,378.3112914953381L664.7335334960371,486.8879782129079L863.4649990685284,422.97273740172386Z" fill="#dbf1a9" stroke="#dbf1a9"></path><path d="M863.4649990685284,422.97273740172386L664.7335334960371,486.8879782129079L872.6481433399022,477.6176738832146Z" fill="#d0ecac" stroke="#d0ecac"></path><path d="M863.4649990685284,422.97273740172386L872.6481433399022,477.6176738832146L956.5763189736754,465.44613397680223Z" fill="#bae4ac" stroke="#bae4ac"></path><path d="M863.4649990685284,422.97273740172386L956.5763189736754,465.44613397680223L991.1877388972789,381.44792187027633Z" fill="#b2dfab" stroke="#b2dfab"></path><path d="M991.1877388972789,381.44792187027633L956.5763189736754,465.44613397680223L1167.096935659647,544.3671466503292Z" fill="#a1ccb5" stroke="#a1ccb5"></path><path d="M991.1877388972789,381.44792187027633L1167.096935659647,544.3671466503292L1114.897281518206,327.52581235952675Z" fill="#98c3b6" stroke="#98c3b6"></path><path d="M1114.897281518206,327.52581235952675L1167.096935659647,544.3671466503292L1247.5322428531945,388.6408812459558Z" fill="#89b3bd" stroke="#89b3bd"></path><path d="M1247.5322428531945,388.6408812459558L1167.096935659647,544.3671466503292L1317.8524466324598,584.8840250540525Z" fill="#78a6c8" stroke="#78a6c8"></path><path d="M1247.5322428531945,388.6408812459558L1317.8524466324598,584.8840250540525L1412.3099753446877,495.0530542898923Z" fill="#7c97cd" stroke="#7c97cd"></path><path d="M1247.5322428531945,388.6408812459558L1412.3099753446877,495.0530542898923L1429.1355069167912,345.64325141720474Z" fill="#8090cb" stroke="#8090cb"></path><path d="M1429.1355069167912,345.64325141720474L1412.3099753446877,495.0530542898923L1445.1004872657359,956.4281565416604Z" fill="#6382db" stroke="#6382db"></path><path d="M-103.05638057179749,483.39778712019324L-114.95984709821641,677.1693701203912L65.09600420482457,511.14361516200006Z" fill="#d3978a" stroke="#d3978a"></path><path d="M65.09600420482457,511.14361516200006L-114.95984709821641,677.1693701203912L95.87953235954046,623.7406958453357Z" fill="#cda089" stroke="#cda089"></path><path d="M65.09600420482457,511.14361516200006L95.87953235954046,623.7406958453357L166.70121900737286,620.7211907207966Z" fill="#ddaf86" stroke="#ddaf86"></path><path d="M65.09600420482457,511.14361516200006L166.70121900737286,620.7211907207966L222.2988931182772,472.58557241410017Z" fill="#ebb680" stroke="#ebb680"></path><path d="M222.2988931182772,472.58557241410017L166.70121900737286,620.7211907207966L317.5850570295006,517.5697848200798Z" fill="#eec788" stroke="#eec788"></path><path d="M317.5850570295006,517.5697848200798L166.70121900737286,620.7211907207966L320.9601064771414,685.1919185835868Z" fill="#ddcc8f" stroke="#ddcc8f"></path><path d="M317.5850570295006,517.5697848200798L320.9601064771414,685.1919185835868L469.6567089948803,485.54547945968807Z" fill="#eae099" stroke="#eae099"></path><path d="M469.6567089948803,485.54547945968807L320.9601064771414,685.1919185835868L518.689863262698,681.8722486216575Z" fill="#dbe8a4" stroke="#dbe8a4"></path><path d="M469.6567089948803,485.54547945968807L518.689863262698,681.8722486216575L664.7335334960371,486.8879782129079Z" fill="#e7f6a9" stroke="#e7f6a9"></path><path d="M664.7335334960371,486.8879782129079L518.689863262698,681.8722486216575L621.0793346073478,717.0689735747874Z" fill="#cdf5ad" stroke="#cdf5ad"></path><path d="M664.7335334960371,486.8879782129079L621.0793346073478,717.0689735747874L824.0554824192077,718.6856194306165Z" fill="#b7eeb1" stroke="#b7eeb1"></path><path d="M664.7335334960371,486.8879782129079L824.0554824192077,718.6856194306165L872.6481433399022,477.6176738832146Z" fill="#bfedb2" stroke="#bfedb2"></path><path d="M872.6481433399022,477.6176738832146L824.0554824192077,718.6856194306165L1013.0020616389811,669.1373202949762Z" fill="#94e0b5" stroke="#94e0b5"></path><path d="M872.6481433399022,477.6176738832146L1013.0020616389811,669.1373202949762L956.5763189736754,465.44613397680223Z" fill="#a1ddb3" stroke="#a1ddb3"></path><path d="M956.5763189736754,465.44613397680223L1013.0020616389811,669.1373202949762L1167.096935659647,544.3671466503292Z" fill="#8ccbbc" stroke="#8ccbbc"></path><path d="M1167.096935659647,544.3671466503292L1013.0020616389811,669.1373202949762L1177.0479192584753,638.2552955299616Z" fill="#70bac3" stroke="#70bac3"></path><path d="M1167.096935659647,544.3671466503292L1177.0479192584753,638.2552955299616L1253.7931371945888,640.9412372298539Z" fill="#66acca" stroke="#66acca"></path><path d="M1167.096935659647,544.3671466503292L1253.7931371945888,640.9412372298539L1317.8524466324598,584.8840250540525Z" fill="#66a6cd" stroke="#66a6cd"></path><path d="M1317.8524466324598,584.8840250540525L1253.7931371945888,640.9412372298539L1387.5197933614254,619.3217315990478Z" fill="#5d95d3" stroke="#5d95d3"></path><path d="M1317.8524466324598,584.8840250540525L1387.5197933614254,619.3217315990478L1412.3099753446877,495.0530542898923Z" fill="#6b8ed6" stroke="#6b8ed6"></path><path d="M1412.3099753446877,495.0530542898923L1387.5197933614254,619.3217315990478L1445.1004872657359,956.4281565416604Z" fill="#427cdb" stroke="#427cdb"></path><path d="M-114.95984709821641,677.1693701203912L-125.80577795393765,883.1536886841059L97.57100251503289,831.8799727410078Z" fill="#8a7197" stroke="#8a7197"></path><path d="M-114.95984709821641,677.1693701203912L97.57100251503289,831.8799727410078L95.87953235954046,623.7406958453357Z" fill="#a9958a" stroke="#a9958a"></path><path d="M95.87953235954046,623.7406958453357L97.57100251503289,831.8799727410078L166.70121900737286,620.7211907207966Z" fill="#b8a686" stroke="#b8a686"></path><path d="M166.70121900737286,620.7211907207966L97.57100251503289,831.8799727410078L192.96770338900387,874.3105524592102Z" fill="#a4958c" stroke="#a4958c"></path><path d="M166.70121900737286,620.7211907207966L192.96770338900387,874.3105524592102L320.9601064771414,685.1919185835868Z" fill="#b3b38e" stroke="#b3b38e"></path><path d="M320.9601064771414,685.1919185835868L192.96770338900387,874.3105524592102L349.9603250529617,832.0784349180758Z" fill="#a3ac9c" stroke="#a3ac9c"></path><path d="M320.9601064771414,685.1919185835868L349.9603250529617,832.0784349180758L518.689863262698,681.8722486216575Z" fill="#b5d1a2" stroke="#b5d1a2"></path><path d="M518.689863262698,681.8722486216575L349.9603250529617,832.0784349180758L493.24989695101976,867.0305322948843Z" fill="#a5c8b1" stroke="#a5c8b1"></path><path d="M518.689863262698,681.8722486216575L493.24989695101976,867.0305322948843L621.0793346073478,717.0689735747874Z" fill="#a9dbb2" stroke="#a9dbb2"></path><path d="M621.0793346073478,717.0689735747874L493.24989695101976,867.0305322948843L697.6018983777612,796.1860254406929Z" fill="#9ad4b9" stroke="#9ad4b9"></path><path d="M621.0793346073478,717.0689735747874L697.6018983777612,796.1860254406929L824.0554824192077,718.6856194306165Z" fill="#94dcb7" stroke="#94dcb7"></path><path d="M824.0554824192077,718.6856194306165L697.6018983777612,796.1860254406929L865.9163993876427,871.9738397095352Z" fill="#76c6bf" stroke="#76c6bf"></path><path d="M824.0554824192077,718.6856194306165L865.9163993876427,871.9738397095352L963.3316195383668,861.4978517498821Z" fill="#5db8c2" stroke="#5db8c2"></path><path d="M824.0554824192077,718.6856194306165L963.3316195383668,861.4978517498821L1013.0020616389811,669.1373202949762Z" fill="#64c8bb" stroke="#64c8bb"></path><path d="M1013.0020616389811,669.1373202949762L963.3316195383668,861.4978517498821L1080.519854882732,795.7638007588685Z" fill="#4fb0c4" stroke="#4fb0c4"></path><path d="M1013.0020616389811,669.1373202949762L1080.519854882732,795.7638007588685L1177.0479192584753,638.2552955299616Z" fill="#57b7c2" stroke="#57b7c2"></path><path d="M1177.0479192584753,638.2552955299616L1080.519854882732,795.7638007588685L1281.6728743258864,837.6710269041359Z" fill="#3897cf" stroke="#3897cf"></path><path d="M1177.0479192584753,638.2552955299616L1281.6728743258864,837.6710269041359L1253.7931371945888,640.9412372298539Z" fill="#3d9bcd" stroke="#3d9bcd"></path><path d="M1253.7931371945888,640.9412372298539L1281.6728743258864,837.6710269041359L1378.917662166059,792.6172646787018Z" fill="#2f80d8" stroke="#2f80d8"></path><path d="M1253.7931371945888,640.9412372298539L1378.917662166059,792.6172646787018L1387.5197933614254,619.3217315990478Z" fill="#458bd5" stroke="#458bd5"></path><path d="M1387.5197933614254,619.3217315990478L1378.917662166059,792.6172646787018L1445.1004872657359,956.4281565416604Z" fill="#2764e4" stroke="#2764e4"></path><path d="M-125.80577795393765,883.1536886841059L-104.55735079944134,976.2857219204307L51.60847473889589,995.121871009469Z" fill="#6542aa" stroke="#6542aa"></path><path d="M-125.80577795393765,883.1536886841059L51.60847473889589,995.121871009469L97.57100251503289,831.8799727410078Z" fill="#745aa1" stroke="#745aa1"></path><path d="M97.57100251503289,831.8799727410078L51.60847473889589,995.121871009469L192.96770338900387,874.3105524592102Z" fill="#806b9d" stroke="#806b9d"></path><path d="M192.96770338900387,874.3105524592102L51.60847473889589,995.121871009469L234.64440724812448,945.1672272384167Z" fill="#7a67a0" stroke="#7a67a0"></path><path d="M192.96770338900387,874.3105524592102L234.64440724812448,945.1672272384167L349.9603250529617,832.0784349180758Z" fill="#8b8ca3" stroke="#8b8ca3"></path><path d="M349.9603250529617,832.0784349180758L234.64440724812448,945.1672272384167L409.17581794783473,979.6177635993809Z" fill="#8390b0" stroke="#8390b0"></path><path d="M349.9603250529617,832.0784349180758L409.17581794783473,979.6177635993809L493.24989695101976,867.0305322948843Z" fill="#8ba6b8" stroke="#8ba6b8"></path><path d="M493.24989695101976,867.0305322948843L409.17581794783473,979.6177635993809L541.0494882054627,979.9452073965222Z" fill="#7ea0c5" stroke="#7ea0c5"></path><path d="M493.24989695101976,867.0305322948843L541.0494882054627,979.9452073965222L697.6018983777612,796.1860254406929Z" fill="#85b8c2" stroke="#85b8c2"></path><path d="M697.6018983777612,796.1860254406929L541.0494882054627,979.9452073965222L675.1322954893112,1002.1467982884496Z" fill="#72acc9" stroke="#72acc9"></path><path d="M697.6018983777612,796.1860254406929L675.1322954893112,1002.1467982884496L789.3996370676905,978.6399731598794Z" fill="#63a6cd" stroke="#63a6cd"></path><path d="M697.6018983777612,796.1860254406929L789.3996370676905,978.6399731598794L865.9163993876427,871.9738397095352Z" fill="#62aeca" stroke="#62aeca"></path><path d="M865.9163993876427,871.9738397095352L789.3996370676905,978.6399731598794L984.5617723558098,994.9236606247723Z" fill="#3e92d2" stroke="#3e92d2"></path><path d="M865.9163993876427,871.9738397095352L984.5617723558098,994.9236606247723L963.3316195383668,861.4978517498821Z" fill="#3998ce" stroke="#3998ce"></path><path d="M963.3316195383668,861.4978517498821L984.5617723558098,994.9236606247723L1096.8178186006844,918.4770170878619Z" fill="#2885d6" stroke="#2885d6"></path><path d="M963.3316195383668,861.4978517498821L1096.8178186006844,918.4770170878619L1080.519854882732,795.7638007588685Z" fill="#3492d0" stroke="#3492d0"></path><path d="M1080.519854882732,795.7638007588685L1096.8178186006844,918.4770170878619L1281.6728743258864,837.6710269041359Z" fill="#2481d8" stroke="#2481d8"></path><path d="M1281.6728743258864,837.6710269041359L1096.8178186006844,918.4770170878619L1248.793149702251,999.2727221176028Z" fill="#0963e4" stroke="#0963e4"></path><path d="M1281.6728743258864,837.6710269041359L1248.793149702251,999.2727221176028L1445.1004872657359,956.4281565416604Z" fill="#0249ee" stroke="#0249ee"></path><path d="M1281.6728743258864,837.6710269041359L1445.1004872657359,956.4281565416604L1378.917662166059,792.6172646787018Z" fill="#1455ea" stroke="#1455ea"></path><path d="M-104.55735079944134,976.2857219204307L-65.90615060180426,1093.2616288214922L51.60847473889589,995.121871009469Z" fill="#6730a9" stroke="#6730a9"></path><path d="M51.60847473889589,995.121871009469L-65.90615060180426,1093.2616288214922L78.34643444046378,1182.2212095558643Z" fill="#6d25a6" stroke="#6d25a6"></path><path d="M51.60847473889589,995.121871009469L78.34643444046378,1182.2212095558643L272.108237715438,1073.833835972473Z" fill="#7839a2" stroke="#7839a2"></path><path d="M51.60847473889589,995.121871009469L272.108237715438,1073.833835972473L234.64440724812448,945.1672272384167Z" fill="#7b59a4" stroke="#7b59a4"></path><path d="M234.64440724812448,945.1672272384167L272.108237715438,1073.833835972473L350.4176627844572,1068.7778500467539Z" fill="#7e67ae" stroke="#7e67ae"></path><path d="M234.64440724812448,945.1672272384167L350.4176627844572,1068.7778500467539L409.17581794783473,979.6177635993809Z" fill="#7f79b3" stroke="#7f79b3"></path><path d="M409.17581794783473,979.6177635993809L350.4176627844572,1068.7778500467539L500.50958004780114,1180.3123427554965Z" fill="#7f70bf" stroke="#7f70bf"></path><path d="M409.17581794783473,979.6177635993809L500.50958004780114,1180.3123427554965L541.0494882054627,979.9452073965222Z" fill="#7e82c6" stroke="#7e82c6"></path><path d="M541.0494882054627,979.9452073965222L500.50958004780114,1180.3123427554965L616.7537429742515,1077.2841389849782Z" fill="#787dc9" stroke="#787dc9"></path><path d="M541.0494882054627,979.9452073965222L616.7537429742515,1077.2841389849782L675.1322954893112,1002.1467982884496Z" fill="#7492cb" stroke="#7492cb"></path><path d="M675.1322954893112,1002.1467982884496L616.7537429742515,1077.2841389849782L807.5387961510569,1111.2558338418603Z" fill="#6480cf" stroke="#6480cf"></path><path d="M675.1322954893112,1002.1467982884496L807.5387961510569,1111.2558338418603L789.3996370676905,978.6399731598794Z" fill="#5985d1" stroke="#5985d1"></path><path d="M789.3996370676905,978.6399731598794L807.5387961510569,1111.2558338418603L984.5617723558098,994.9236606247723Z" fill="#437cd2" stroke="#437cd2"></path><path d="M984.5617723558098,994.9236606247723L807.5387961510569,1111.2558338418603L971.1818259302527,1182.7108056563884Z" fill="#3564d2" stroke="#3564d2"></path><path d="M984.5617723558098,994.9236606247723L971.1818259302527,1182.7108056563884L1103.6266666464508,1072.5213234499097Z" fill="#2455d9" stroke="#2455d9"></path><path d="M984.5617723558098,994.9236606247723L1103.6266666464508,1072.5213234499097L1096.8178186006844,918.4770170878619Z" fill="#1d68dc" stroke="#1d68dc"></path><path d="M1096.8178186006844,918.4770170878619L1103.6266666464508,1072.5213234499097L1248.793149702251,999.2727221176028Z" fill="#0e57e3" stroke="#0e57e3"></path><path d="M1248.793149702251,999.2727221176028L1103.6266666464508,1072.5213234499097L1241.3190250843763,1131.32453343831Z" fill="#0639e7" stroke="#0639e7"></path><path d="M1248.793149702251,999.2727221176028L1241.3190250843763,1131.32453343831L1439.2488118540496,1086.90115573816Z" fill="#0023f0" stroke="#0023f0"></path><path d="M1248.793149702251,999.2727221176028L1439.2488118540496,1086.90115573816L1445.1004872657359,956.4281565416604Z" fill="#0027f5" stroke="#0027f5"></path><path d="M78.34643444046378,1182.2212095558643L971.1818259302527,1182.7108056563884L500.50958004780114,1180.3123427554965Z" fill="#7b74c7" stroke="#7b74c7"></path><path d="M78.34643444046378,1182.2212095558643L500.50958004780114,1180.3123427554965L272.108237715438,1073.833835972473Z" fill="#7e52ae" stroke="#7e52ae"></path><path d="M272.108237715438,1073.833835972473L500.50958004780114,1180.3123427554965L350.4176627844572,1068.7778500467539Z" fill="#7f62b9" stroke="#7f62b9"></path><path d="M500.50958004780114,1180.3123427554965L971.1818259302527,1182.7108056563884L807.5387961510569,1111.2558338418603Z" fill="#5970d1" stroke="#5970d1"></path><path d="M500.50958004780114,1180.3123427554965L807.5387961510569,1111.2558338418603L616.7537429742515,1077.2841389849782Z" fill="#6f79cd" stroke="#6f79cd"></path><path d="M971.1818259302527,1182.7108056563884L1241.3190250843763,1131.32453343831L1103.6266666464508,1072.5213234499097Z" fill="#1640e0" stroke="#1640e0"></path></g></svg>
