<svg width="1507" height="942" xmlns="http://www.w3.org/2000/svg"><g><path d="M-46.87253612559289,-129.28194663254544L-89.64727712329477,102.33492132974789L34.57121299114078,76.27764652250335Z" fill="#fdffe0" stroke="#fdffe0"></path><path d="M-46.87253612559289,-129.28194663254544L34.57121299114078,76.27764652250335L87.89878415176645,-133.84499225998297Z" fill="#fbfee3" stroke="#fbfee3"></path><path d="M87.89878415176645,-133.84499225998297L34.57121299114078,76.27764652250335L251.04344157036394,46.5724328905344Z" fill="#ecf8db" stroke="#ecf8db"></path><path d="M87.89878415176645,-133.84499225998297L251.04344157036394,46.5724328905344L265.32209317432716,-139.61885024793446Z" fill="#e0f3dd" stroke="#e0f3dd"></path><path d="M265.32209317432716,-139.61885024793446L251.04344157036394,46.5724328905344L420.44509978732094,-54.96626688167453Z" fill="#cfecd8" stroke="#cfecd8"></path><path d="M265.32209317432716,-139.61885024793446L420.44509978732094,-54.96626688167453L608.5362089285627,-123.38143485831097Z" fill="#bce5dd" stroke="#bce5dd"></path><path d="M265.32209317432716,-139.61885024793446L608.5362089285627,-123.38143485831097L798.956233675126,-123.646855072584Z" fill="#a7dde1" stroke="#a7dde1"></path><path d="M265.32209317432716,-139.61885024793446L798.956233675126,-123.646855072584L938.0206479970366,-123.98874827893451Z" fill="#9ed5e0" stroke="#9ed5e0"></path><path d="M420.44509978732094,-54.96626688167453L251.04344157036394,46.5724328905344L475.30132771935314,66.87284159939736Z" fill="#c0e8d4" stroke="#c0e8d4"></path><path d="M420.44509978732094,-54.96626688167453L475.30132771935314,66.87284159939736L608.5362089285627,-123.38143485831097Z" fill="#b0e1dc" stroke="#b0e1dc"></path><path d="M608.5362089285627,-123.38143485831097L475.30132771935314,66.87284159939736L591.6240607458167,95.98677163477987Z" fill="#a5ddda" stroke="#a5ddda"></path><path d="M608.5362089285627,-123.38143485831097L591.6240607458167,95.98677163477987L798.956233675126,-123.646855072584Z" fill="#9ed5de" stroke="#9ed5de"></path><path d="M798.956233675126,-123.646855072584L591.6240607458167,95.98677163477987L768.6271310201846,131.94584841607139Z" fill="#96d0d7" stroke="#96d0d7"></path><path d="M798.956233675126,-123.646855072584L768.6271310201846,131.94584841607139L888.0227721226402,113.33754642866552Z" fill="#92c7d4" stroke="#92c7d4"></path><path d="M798.956233675126,-123.646855072584L888.0227721226402,113.33754642866552L938.0206479970366,-123.98874827893451Z" fill="#97c2da" stroke="#97c2da"></path><path d="M938.0206479970366,-123.98874827893451L888.0227721226402,113.33754642866552L1118.706664715428,94.54891411354765Z" fill="#90b6cf" stroke="#90b6cf"></path><path d="M938.0206479970366,-123.98874827893451L1118.706664715428,94.54891411354765L1143.2577251503244,-55.007501700893044Z" fill="#94abce" stroke="#94abce"></path><path d="M938.0206479970366,-123.98874827893451L1143.2577251503244,-55.007501700893044L1303.7082236399874,-91.62383958231658Z" fill="#93a3ce" stroke="#93a3ce"></path><path d="M1143.2577251503244,-55.007501700893044L1118.706664715428,94.54891411354765L1319.3353631161153,86.85450455639511Z" fill="#8b9bc1" stroke="#8b9bc1"></path><path d="M1143.2577251503244,-55.007501700893044L1319.3353631161153,86.85450455639511L1303.7082236399874,-91.62383958231658Z" fill="#9294c2" stroke="#9294c2"></path><path d="M1303.7082236399874,-91.62383958231658L1319.3353631161153,86.85450455639511L1411.3882200280204,-41.423546159639955Z" fill="#9188bc" stroke="#9188bc"></path><path d="M1303.7082236399874,-91.62383958231658L1411.3882200280204,-41.423546159639955L1601.6978760040365,-52.87890292238444Z" fill="#9080ba" stroke="#9080ba"></path><path d="M1411.3882200280204,-41.423546159639955L1319.3353631161153,86.85450455639511L1453.065703951288,73.1993869249709Z" fill="#8a82b5" stroke="#8a82b5"></path><path d="M1411.3882200280204,-41.423546159639955L1453.065703951288,73.1993869249709L1601.6978760040365,-52.87890292238444Z" fill="#8f80b3" stroke="#8f80b3"></path><path d="M1601.6978760040365,-52.87890292238444L1453.065703951288,73.1993869249709L1587.4280577106401,70.70845199516043Z" fill="#8980ad" stroke="#8980ad"></path><path d="M1601.6978760040365,-52.87890292238444L1587.4280577106401,70.70845199516043L1669.7923991200514,249.18757046805695Z" fill="#7e80a5" stroke="#7e80a5"></path><path d="M-89.64727712329477,102.33492132974789L-134.28835269762203,616.1209880909882L-97.71401231642812,256.3754217373207Z" fill="#b6f1dd" stroke="#b6f1dd"></path><path d="M-89.64727712329477,102.33492132974789L-97.71401231642812,256.3754217373207L34.57121299114078,76.27764652250335Z" fill="#e7ffd7" stroke="#e7ffd7"></path><path d="M34.57121299114078,76.27764652250335L-97.71401231642812,256.3754217373207L136.03190851397812,279.6931750373915Z" fill="#d7fcd2" stroke="#d7fcd2"></path><path d="M34.57121299114078,76.27764652250335L136.03190851397812,279.6931750373915L251.04344157036394,46.5724328905344Z" fill="#d3f7d0" stroke="#d3f7d0"></path><path d="M251.04344157036394,46.5724328905344L136.03190851397812,279.6931750373915L260.1093685394153,248.59963233117014Z" fill="#bdf2c9" stroke="#bdf2c9"></path><path d="M251.04344157036394,46.5724328905344L260.1093685394153,248.59963233117014L394.00128923356533,202.80013747513294Z" fill="#b4edc7" stroke="#b4edc7"></path><path d="M251.04344157036394,46.5724328905344L394.00128923356533,202.80013747513294L475.30132771935314,66.87284159939736Z" fill="#b3e8ce" stroke="#b3e8ce"></path><path d="M475.30132771935314,66.87284159939736L394.00128923356533,202.80013747513294L555.2937774686143,240.83374914713204Z" fill="#98e2cc" stroke="#98e2cc"></path><path d="M475.30132771935314,66.87284159939736L555.2937774686143,240.83374914713204L591.6240607458167,95.98677163477987Z" fill="#94ded0" stroke="#94ded0"></path><path d="M591.6240607458167,95.98677163477987L555.2937774686143,240.83374914713204L739.1998390504159,257.5574404117651Z" fill="#7dd7ce" stroke="#7dd7ce"></path><path d="M591.6240607458167,95.98677163477987L739.1998390504159,257.5574404117651L768.6271310201846,131.94584841607139Z" fill="#82d2ce" stroke="#82d2ce"></path><path d="M768.6271310201846,131.94584841607139L739.1998390504159,257.5574404117651L904.5020626299083,215.14420334948227Z" fill="#76c7ca" stroke="#76c7ca"></path><path d="M768.6271310201846,131.94584841607139L904.5020626299083,215.14420334948227L888.0227721226402,113.33754642866552Z" fill="#7ec4cb" stroke="#7ec4cb"></path><path d="M888.0227721226402,113.33754642866552L904.5020626299083,215.14420334948227L1118.706664715428,94.54891411354765Z" fill="#7db7c7" stroke="#7db7c7"></path><path d="M1118.706664715428,94.54891411354765L904.5020626299083,215.14420334948227L1117.2005510982126,203.3159719198011Z" fill="#78aec1" stroke="#78aec1"></path><path d="M1118.706664715428,94.54891411354765L1117.2005510982126,203.3159719198011L1319.3353631161153,86.85450455639511Z" fill="#7d9cbb" stroke="#7d9cbb"></path><path d="M1319.3353631161153,86.85450455639511L1117.2005510982126,203.3159719198011L1313.2201293227263,236.0280853137374Z" fill="#7494b4" stroke="#7494b4"></path><path d="M1319.3353631161153,86.85450455639511L1313.2201293227263,236.0280853137374L1490.2610192168504,208.41573040699586Z" fill="#7385ad" stroke="#7385ad"></path><path d="M1319.3353631161153,86.85450455639511L1490.2610192168504,208.41573040699586L1453.065703951288,73.1993869249709Z" fill="#7b80ae" stroke="#7b80ae"></path><path d="M1453.065703951288,73.1993869249709L1490.2610192168504,208.41573040699586L1587.4280577106401,70.70845199516043Z" fill="#7b80a9" stroke="#7b80a9"></path><path d="M1587.4280577106401,70.70845199516043L1490.2610192168504,208.41573040699586L1669.7923991200514,249.18757046805695Z" fill="#7080a0" stroke="#7080a0"></path><path d="M-97.71401231642812,256.3754217373207L-134.28835269762203,616.1209880909882L-116.75754405325279,479.8424776480533Z" fill="#a1dfdd" stroke="#a1dfdd"></path><path d="M-97.71401231642812,256.3754217373207L-116.75754405325279,479.8424776480533L123.44073581043631,414.25204681698233Z" fill="#a6ebdc" stroke="#a6ebdc"></path><path d="M-97.71401231642812,256.3754217373207L123.44073581043631,414.25204681698233L136.03190851397812,279.6931750373915Z" fill="#b0efd6" stroke="#b0efd6"></path><path d="M136.03190851397812,279.6931750373915L123.44073581043631,414.25204681698233L216.37907495489344,466.28593954024836Z" fill="#8de1d4" stroke="#8de1d4"></path><path d="M136.03190851397812,279.6931750373915L216.37907495489344,466.28593954024836L260.1093685394153,248.59963233117014Z" fill="#94e4d1" stroke="#94e4d1"></path><path d="M260.1093685394153,248.59963233117014L216.37907495489344,466.28593954024836L454.89858926506713,417.6675115362741Z" fill="#76d9cf" stroke="#76d9cf"></path><path d="M260.1093685394153,248.59963233117014L454.89858926506713,417.6675115362741L394.00128923356533,202.80013747513294Z" fill="#87dfcd" stroke="#87dfcd"></path><path d="M394.00128923356533,202.80013747513294L454.89858926506713,417.6675115362741L555.2937774686143,240.83374914713204Z" fill="#78d9cf" stroke="#78d9cf"></path><path d="M555.2937774686143,240.83374914713204L454.89858926506713,417.6675115362741L598.71622673003,473.05138618452474Z" fill="#52ccd5" stroke="#52ccd5"></path><path d="M555.2937774686143,240.83374914713204L598.71622673003,473.05138618452474L739.1998390504159,257.5574404117651Z" fill="#56cbd4" stroke="#56cbd4"></path><path d="M739.1998390504159,257.5574404117651L598.71622673003,473.05138618452474L799.9876913730986,462.88502261741087Z" fill="#42bad4" stroke="#42bad4"></path><path d="M739.1998390504159,257.5574404117651L799.9876913730986,462.88502261741087L886.7405272927135,448.4534611925483Z" fill="#3fb3d3" stroke="#3fb3d3"></path><path d="M739.1998390504159,257.5574404117651L886.7405272927135,448.4534611925483L904.5020626299083,215.14420334948227Z" fill="#54b9cf" stroke="#54b9cf"></path><path d="M904.5020626299083,215.14420334948227L886.7405272927135,448.4534611925483L1107.5056192604825,447.4460677849129Z" fill="#3ea5cd" stroke="#3ea5cd"></path><path d="M904.5020626299083,215.14420334948227L1107.5056192604825,447.4460677849129L1117.2005510982126,203.3159719198011Z" fill="#56a4c4" stroke="#56a4c4"></path><path d="M1117.2005510982126,203.3159719198011L1107.5056192604825,447.4460677849129L1228.6147821857594,383.2348212576471Z" fill="#4491c1" stroke="#4491c1"></path><path d="M1117.2005510982126,203.3159719198011L1228.6147821857594,383.2348212576471L1313.2201293227263,236.0280853137374Z" fill="#598fb9" stroke="#598fb9"></path><path d="M1313.2201293227263,236.0280853137374L1228.6147821857594,383.2348212576471L1450.271272638347,374.4484930858016Z" fill="#467cb5" stroke="#467cb5"></path><path d="M1313.2201293227263,236.0280853137374L1450.271272638347,374.4484930858016L1490.2610192168504,208.41573040699586Z" fill="#5677ae" stroke="#5677ae"></path><path d="M1490.2610192168504,208.41573040699586L1450.271272638347,374.4484930858016L1563.9579664403573,422.5728166894987Z" fill="#4271ac" stroke="#4271ac"></path><path d="M1490.2610192168504,208.41573040699586L1563.9579664403573,422.5728166894987L1669.7923991200514,249.18757046805695Z" fill="#4e75a5" stroke="#4e75a5"></path><path d="M1669.7923991200514,249.18757046805695L1563.9579664403573,422.5728166894987L1565.8921656175517,620.1515578245744Z" fill="#3163a6" stroke="#3163a6"></path><path d="M1669.7923991200514,249.18757046805695L1565.8921656175517,620.1515578245744L1652.8784329397604,976.7825353890657Z" fill="#274099" stroke="#274099"></path><path d="M-116.75754405325279,479.8424776480533L-134.28835269762203,616.1209880909882L135.0508557097055,643.5536815109663Z" fill="#99c8d4" stroke="#99c8d4"></path><path d="M-116.75754405325279,479.8424776480533L135.0508557097055,643.5536815109663L123.44073581043631,414.25204681698233Z" fill="#96d1d4" stroke="#96d1d4"></path><path d="M123.44073581043631,414.25204681698233L135.0508557097055,643.5536815109663L216.37907495489344,466.28593954024836Z" fill="#85ccd0" stroke="#85ccd0"></path><path d="M216.37907495489344,466.28593954024836L135.0508557097055,643.5536815109663L233.42473710887134,593.0056355637498Z" fill="#7bbfcb" stroke="#7bbfcb"></path><path d="M216.37907495489344,466.28593954024836L233.42473710887134,593.0056355637498L376.94764404091984,560.491935738828Z" fill="#70bfca" stroke="#70bfca"></path><path d="M216.37907495489344,466.28593954024836L376.94764404091984,560.491935738828L454.89858926506713,417.6675115362741Z" fill="#69c4cd" stroke="#69c4cd"></path><path d="M454.89858926506713,417.6675115362741L376.94764404091984,560.491935738828L598.71622673003,473.05138618452474Z" fill="#54bdcf" stroke="#54bdcf"></path><path d="M598.71622673003,473.05138618452474L376.94764404091984,560.491935738828L638.9134873915464,555.5714395595714Z" fill="#48b1d0" stroke="#48b1d0"></path><path d="M598.71622673003,473.05138618452474L638.9134873915464,555.5714395595714L799.9876913730986,462.88502261741087Z" fill="#3dacd1" stroke="#3dacd1"></path><path d="M799.9876913730986,462.88502261741087L638.9134873915464,555.5714395595714L808.9558038813993,581.6376356268302Z" fill="#389fce" stroke="#389fce"></path><path d="M799.9876913730986,462.88502261741087L808.9558038813993,581.6376356268302L886.7405272927135,448.4534611925483Z" fill="#379ece" stroke="#379ece"></path><path d="M886.7405272927135,448.4534611925483L808.9558038813993,581.6376356268302L963.0845611752011,637.4856333131902Z" fill="#318ecb" stroke="#318ecb"></path><path d="M886.7405272927135,448.4534611925483L963.0845611752011,637.4856333131902L1082.99503314076,549.6343069570139Z" fill="#3186c6" stroke="#3186c6"></path><path d="M886.7405272927135,448.4534611925483L1082.99503314076,549.6343069570139L1107.5056192604825,447.4460677849129Z" fill="#348bc6" stroke="#348bc6"></path><path d="M1107.5056192604825,447.4460677849129L1082.99503314076,549.6343069570139L1247.9096557712182,573.8186408882029Z" fill="#3075bd" stroke="#3075bd"></path><path d="M1107.5056192604825,447.4460677849129L1247.9096557712182,573.8186408882029L1228.6147821857594,383.2348212576471Z" fill="#3378bc" stroke="#3378bc"></path><path d="M1228.6147821857594,383.2348212576471L1247.9096557712182,573.8186408882029L1450.271272638347,374.4484930858016Z" fill="#346eb7" stroke="#346eb7"></path><path d="M1450.271272638347,374.4484930858016L1247.9096557712182,573.8186408882029L1479.5105645456351,562.4537077592686Z" fill="#2f59af" stroke="#2f59af"></path><path d="M1450.271272638347,374.4484930858016L1479.5105645456351,562.4537077592686L1563.9579664403573,422.5728166894987Z" fill="#315fab" stroke="#315fab"></path><path d="M1563.9579664403573,422.5728166894987L1479.5105645456351,562.4537077592686L1565.8921656175517,620.1515578245744Z" fill="#2b51a5" stroke="#2b51a5"></path><path d="M-134.28835269762203,616.1209880909882L-85.26683657430112,1095.3561763954349L-70.17136377515271,971.2636725581251Z" fill="#9380b2" stroke="#9380b2"></path><path d="M-134.28835269762203,616.1209880909882L-70.17136377515271,971.2636725581251L-94.73063357640058,719.0720628132112Z" fill="#959bc1" stroke="#959bc1"></path><path d="M-134.28835269762203,616.1209880909882L-94.73063357640058,719.0720628132112L135.0508557097055,643.5536815109663Z" fill="#98b5ca" stroke="#98b5ca"></path><path d="M135.0508557097055,643.5536815109663L-94.73063357640058,719.0720628132112L126.67326065944508,727.7757023693994Z" fill="#8ea9c3" stroke="#8ea9c3"></path><path d="M135.0508557097055,643.5536815109663L126.67326065944508,727.7757023693994L233.42473710887134,593.0056355637498Z" fill="#7eacc3" stroke="#7eacc3"></path><path d="M233.42473710887134,593.0056355637498L126.67326065944508,727.7757023693994L308.86149691417813,789.6018036548048Z" fill="#749dbb" stroke="#749dbb"></path><path d="M233.42473710887134,593.0056355637498L308.86149691417813,789.6018036548048L376.94764404091984,560.491935738828Z" fill="#68a5be" stroke="#68a5be"></path><path d="M376.94764404091984,560.491935738828L308.86149691417813,789.6018036548048L424.6851413627155,741.1178855970502Z" fill="#5d96bb" stroke="#5d96bb"></path><path d="M376.94764404091984,560.491935738828L424.6851413627155,741.1178855970502L638.9134873915464,555.5714395595714Z" fill="#4da2c6" stroke="#4da2c6"></path><path d="M638.9134873915464,555.5714395595714L424.6851413627155,741.1178855970502L567.9424961050972,782.5511557003483Z" fill="#428cc0" stroke="#428cc0"></path><path d="M638.9134873915464,555.5714395595714L567.9424961050972,782.5511557003483L814.833215479739,785.3778257104568Z" fill="#357fbe" stroke="#357fbe"></path><path d="M638.9134873915464,555.5714395595714L814.833215479739,785.3778257104568L808.9558038813993,581.6376356268302Z" fill="#3487c4" stroke="#3487c4"></path><path d="M808.9558038813993,581.6376356268302L814.833215479739,785.3778257104568L963.0845611752011,637.4856333131902Z" fill="#3077bf" stroke="#3077bf"></path><path d="M963.0845611752011,637.4856333131902L814.833215479739,785.3778257104568L955.60228404589,817.2525551798753Z" fill="#2c5fb5" stroke="#2c5fb5"></path><path d="M963.0845611752011,637.4856333131902L955.60228404589,817.2525551798753L1133.2681841263548,758.8791489414871Z" fill="#2b54af" stroke="#2b54af"></path><path d="M963.0845611752011,637.4856333131902L1133.2681841263548,758.8791489414871L1082.99503314076,549.6343069570139Z" fill="#2c64b7" stroke="#2c64b7"></path><path d="M1082.99503314076,549.6343069570139L1133.2681841263548,758.8791489414871L1247.9096557712182,573.8186408882029Z" fill="#2c5eb4" stroke="#2c5eb4"></path><path d="M1247.9096557712182,573.8186408882029L1133.2681841263548,758.8791489414871L1312.4520356813446,712.2566142189316Z" fill="#2a47a9" stroke="#2a47a9"></path><path d="M1247.9096557712182,573.8186408882029L1312.4520356813446,712.2566142189316L1479.5105645456351,562.4537077592686Z" fill="#2a48a9" stroke="#2a48a9"></path><path d="M1479.5105645456351,562.4537077592686L1312.4520356813446,712.2566142189316L1497.0977962948382,780.4491667519324Z" fill="#282f9d" stroke="#282f9d"></path><path d="M1479.5105645456351,562.4537077592686L1497.0977962948382,780.4491667519324L1565.8921656175517,620.1515578245744Z" fill="#27379b" stroke="#27379b"></path><path d="M1565.8921656175517,620.1515578245744L1497.0977962948382,780.4491667519324L1567.2820455371402,788.8100331206806Z" fill="#252591" stroke="#252591"></path><path d="M1565.8921656175517,620.1515578245744L1567.2820455371402,788.8100331206806L1652.8784329397604,976.7825353890657Z" fill="#231586" stroke="#231586"></path><path d="M-94.73063357640058,719.0720628132112L-70.17136377515271,971.2636725581251L126.67326065944508,727.7757023693994Z" fill="#9592b9" stroke="#9592b9"></path><path d="M126.67326065944508,727.7757023693994L-70.17136377515271,971.2636725581251L103.29617741517723,980.2447801991366Z" fill="#8a7cac" stroke="#8a7cac"></path><path d="M126.67326065944508,727.7757023693994L103.29617741517723,980.2447801991366L272.77150484500453,952.8441438917071Z" fill="#7975a9" stroke="#7975a9"></path><path d="M126.67326065944508,727.7757023693994L272.77150484500453,952.8441438917071L308.86149691417813,789.6018036548048Z" fill="#6f80ad" stroke="#6f80ad"></path><path d="M308.86149691417813,789.6018036548048L272.77150484500453,952.8441438917071L464.69072378473356,883.5504199960269Z" fill="#5d6ca6" stroke="#5d6ca6"></path><path d="M308.86149691417813,789.6018036548048L464.69072378473356,883.5504199960269L424.6851413627155,741.1178855970502Z" fill="#567aaf" stroke="#567aaf"></path><path d="M424.6851413627155,741.1178855970502L464.69072378473356,883.5504199960269L567.9424961050972,782.5511557003483Z" fill="#4876b2" stroke="#4876b2"></path><path d="M567.9424961050972,782.5511557003483L464.69072378473356,883.5504199960269L644.7726509650238,931.9961221748963Z" fill="#3b62ac" stroke="#3b62ac"></path><path d="M567.9424961050972,782.5511557003483L644.7726509650238,931.9961221748963L814.833215479739,785.3778257104568Z" fill="#3361b0" stroke="#3361b0"></path><path d="M814.833215479739,785.3778257104568L644.7726509650238,931.9961221748963L783.7961058411747,979.1430825996213Z" fill="#2f4ea7" stroke="#2f4ea7"></path><path d="M814.833215479739,785.3778257104568L783.7961058411747,979.1430825996213L932.3104365193285,967.6340686320327Z" fill="#2b45a3" stroke="#2b45a3"></path><path d="M814.833215479739,785.3778257104568L932.3104365193285,967.6340686320327L955.60228404589,817.2525551798753Z" fill="#2a47a8" stroke="#2a47a8"></path><path d="M955.60228404589,817.2525551798753L932.3104365193285,967.6340686320327L1107.852643346414,928.82452088641Z" fill="#28349e" stroke="#28349e"></path><path d="M955.60228404589,817.2525551798753L1107.852643346414,928.82452088641L1133.2681841263548,758.8791489414871Z" fill="#2938a1" stroke="#2938a1"></path><path d="M1133.2681841263548,758.8791489414871L1107.852643346414,928.82452088641L1283.234962867573,938.6934670060873Z" fill="#272096" stroke="#272096"></path><path d="M1133.2681841263548,758.8791489414871L1283.234962867573,938.6934670060873L1312.4520356813446,712.2566142189316Z" fill="#27299b" stroke="#27299b"></path><path d="M1312.4520356813446,712.2566142189316L1283.234962867573,938.6934670060873L1398.004083300475,943.8994600507431Z" fill="#250f8e" stroke="#250f8e"></path><path d="M1312.4520356813446,712.2566142189316L1398.004083300475,943.8994600507431L1497.0977962948382,780.4491667519324Z" fill="#251390" stroke="#251390"></path><path d="M1497.0977962948382,780.4491667519324L1398.004083300475,943.8994600507431L1567.2820455371402,788.8100331206806Z" fill="#230b88" stroke="#230b88"></path><path d="M1567.2820455371402,788.8100331206806L1398.004083300475,943.8994600507431L1652.8784329397604,976.7825353890657Z" fill="#22007d" stroke="#22007d"></path><path d="M-70.17136377515271,971.2636725581251L-85.26683657430112,1095.3561763954349L103.29617741517723,980.2447801991366Z" fill="#9080a1" stroke="#9080a1"></path><path d="M103.29617741517723,980.2447801991366L-85.26683657430112,1095.3561763954349L86.8578963726759,1159.3568276125006Z" fill="#897e98" stroke="#897e98"></path><path d="M103.29617741517723,980.2447801991366L86.8578963726759,1159.3568276125006L208.33203869638965,1089.4676720001735Z" fill="#7a7894" stroke="#7a7894"></path><path d="M103.29617741517723,980.2447801991366L208.33203869638965,1089.4676720001735L272.77150484500453,952.8441438917071Z" fill="#727499" stroke="#727499"></path><path d="M272.77150484500453,952.8441438917071L208.33203869638965,1089.4676720001735L401.3713439181447,1084.9626008351333Z" fill="#626e92" stroke="#626e92"></path><path d="M272.77150484500453,952.8441438917071L401.3713439181447,1084.9626008351333L464.69072378473356,883.5504199960269Z" fill="#56699b" stroke="#56699b"></path><path d="M464.69072378473356,883.5504199960269L401.3713439181447,1084.9626008351333L647.8411644883454,1076.654181687627Z" fill="#41619a" stroke="#41619a"></path><path d="M464.69072378473356,883.5504199960269L647.8411644883454,1076.654181687627L644.7726509650238,931.9961221748963Z" fill="#355ca2" stroke="#355ca2"></path><path d="M644.7726509650238,931.9961221748963L647.8411644883454,1076.654181687627L783.7961058411747,979.1430825996213Z" fill="#2f539d" stroke="#2f539d"></path><path d="M783.7961058411747,979.1430825996213L647.8411644883454,1076.654181687627L819.5748587488197,1077.0925621478818Z" fill="#2c4e96" stroke="#2c4e96"></path><path d="M783.7961058411747,979.1430825996213L819.5748587488197,1077.0925621478818L932.3104365193285,967.6340686320327Z" fill="#294598" stroke="#294598"></path><path d="M932.3104365193285,967.6340686320327L819.5748587488197,1077.0925621478818L965.0900176912546,1054.8257876606658Z" fill="#264094" stroke="#264094"></path><path d="M932.3104365193285,967.6340686320327L965.0900176912546,1054.8257876606658L1107.852643346414,928.82452088641Z" fill="#263494" stroke="#263494"></path><path d="M1107.852643346414,928.82452088641L965.0900176912546,1054.8257876606658L1141.7696024454199,1097.030205100309Z" fill="#242b8b" stroke="#242b8b"></path><path d="M1107.852643346414,928.82452088641L1141.7696024454199,1097.030205100309L1283.234962867573,938.6934670060873Z" fill="#241e89" stroke="#241e89"></path><path d="M1283.234962867573,938.6934670060873L1141.7696024454199,1097.030205100309L1285.7946413801983,1130.8939677942544Z" fill="#22167e" stroke="#22167e"></path><path d="M1283.234962867573,938.6934670060873L1285.7946413801983,1130.8939677942544L1398.004083300475,943.8994600507431Z" fill="#220c7f" stroke="#220c7f"></path><path d="M1398.004083300475,943.8994600507431L1285.7946413801983,1130.8939677942544L1399.0573239559308,1131.2424937821925Z" fill="#200775" stroke="#200775"></path><path d="M1398.004083300475,943.8994600507431L1399.0573239559308,1131.2424937821925L1632.0577138662338,1062.530440588016Z" fill="#200071" stroke="#200071"></path><path d="M1398.004083300475,943.8994600507431L1632.0577138662338,1062.530440588016L1652.8784329397604,976.7825353890657Z" fill="#200072" stroke="#200072"></path><path d="M86.8578963726759,1159.3568276125006L1399.0573239559308,1131.2424937821925L1285.7946413801983,1130.8939677942544Z" fill="#243d87" stroke="#243d87"></path><path d="M86.8578963726759,1159.3568276125006L1285.7946413801983,1130.8939677942544L819.5748587488197,1077.0925621478818Z" fill="#2a508e" stroke="#2a508e"></path><path d="M86.8578963726759,1159.3568276125006L819.5748587488197,1077.0925621478818L647.8411644883454,1076.654181687627Z" fill="#3d6090" stroke="#3d6090"></path><path d="M86.8578963726759,1159.3568276125006L647.8411644883454,1076.654181687627L401.3713439181447,1084.9626008351333Z" fill="#53698c" stroke="#53698c"></path><path d="M86.8578963726759,1159.3568276125006L401.3713439181447,1084.9626008351333L208.33203869638965,1089.4676720001735Z" fill="#6a718c" stroke="#6a718c"></path><path d="M819.5748587488197,1077.0925621478818L1285.7946413801983,1130.8939677942544L1141.7696024454199,1097.030205100309Z" fill="#232a82" stroke="#232a82"></path><path d="M819.5748587488197,1077.0925621478818L1141.7696024454199,1097.030205100309L965.0900176912546,1054.8257876606658Z" fill="#24378b" stroke="#24378b"></path></g></svg>