<svg width="1240" height="919" xmlns="http://www.w3.org/2000/svg"><g><path d="M-81.59726148471236,-134.39581965096295L-125.53386189043522,358.83761960081756L-66.06825373135507,76.27788143232465Z" fill="#f7faff" stroke="#f7faff"></path><path d="M-81.59726148471236,-134.39581965096295L-66.06825373135507,76.27788143232465L15.047111716121435,28.557501258328557Z" fill="#fffbfd" stroke="#fffbfd"></path><path d="M-81.59726148471236,-134.39581965096295L15.047111716121435,28.557501258328557L117.85618144087493,-90.15934883616865Z" fill="#f9f6fa" stroke="#f9f6fa"></path><path d="M-81.59726148471236,-134.39581965096295L117.85618144087493,-90.15934883616865L487.2700410336256,-103.64363199099898Z" fill="#e7eaf4" stroke="#e7eaf4"></path><path d="M-81.59726148471236,-134.39581965096295L487.2700410336256,-103.64363199099898L1010.0205257814378,-116.60345172509551Z" fill="#b7d6e8" stroke="#b7d6e8"></path><path d="M-81.59726148471236,-134.39581965096295L1010.0205257814378,-116.60345172509551L1328.4072950016707,-122.31805237010121Z" fill="#8dc7cb" stroke="#8dc7cb"></path><path d="M117.85618144087493,-90.15934883616865L15.047111716121435,28.557501258328557L174.29918440058827,-18.394125625491142Z" fill="#efeff7" stroke="#efeff7"></path><path d="M117.85618144087493,-90.15934883616865L174.29918440058827,-18.394125625491142L324.8604044225067,-46.51420187205076Z" fill="#e3e7f2" stroke="#e3e7f2"></path><path d="M117.85618144087493,-90.15934883616865L324.8604044225067,-46.51420187205076L487.2700410336256,-103.64363199099898Z" fill="#d4e0ee" stroke="#d4e0ee"></path><path d="M174.29918440058827,-18.394125625491142L15.047111716121435,28.557501258328557L97.81712718307972,178.68717469274998Z" fill="#ebedf7" stroke="#ebedf7"></path><path d="M174.29918440058827,-18.394125625491142L97.81712718307972,178.68717469274998L214.4296894222498,120.7685393281281Z" fill="#e1e7f4" stroke="#e1e7f4"></path><path d="M174.29918440058827,-18.394125625491142L214.4296894222498,120.7685393281281L324.8604044225067,-46.51420187205076Z" fill="#dee4f1" stroke="#dee4f1"></path><path d="M324.8604044225067,-46.51420187205076L214.4296894222498,120.7685393281281L413.0449358560145,119.27139708772302Z" fill="#cdddee" stroke="#cdddee"></path><path d="M324.8604044225067,-46.51420187205076L413.0449358560145,119.27139708772302L480.7090070284903,47.653605407103896Z" fill="#bfd9eb" stroke="#bfd9eb"></path><path d="M324.8604044225067,-46.51420187205076L480.7090070284903,47.653605407103896L487.2700410336256,-103.64363199099898Z" fill="#bfd8ea" stroke="#bfd8ea"></path><path d="M487.2700410336256,-103.64363199099898L480.7090070284903,47.653605407103896L651.2727919220924,50.70759046822786Z" fill="#add2e2" stroke="#add2e2"></path><path d="M487.2700410336256,-103.64363199099898L651.2727919220924,50.70759046822786L690.768446708098,-71.99354921467602Z" fill="#a2cfdb" stroke="#a2cfdb"></path><path d="M487.2700410336256,-103.64363199099898L690.768446708098,-71.99354921467602L1010.0205257814378,-116.60345172509551Z" fill="#90c8ce" stroke="#90c8ce"></path><path d="M690.768446708098,-71.99354921467602L651.2727919220924,50.70759046822786L792.1185731235892,-71.68091059662402Z" fill="#93c9d0" stroke="#93c9d0"></path><path d="M690.768446708098,-71.99354921467602L792.1185731235892,-71.68091059662402L1010.0205257814378,-116.60345172509551Z" fill="#89c1c1" stroke="#89c1c1"></path><path d="M792.1185731235892,-71.68091059662402L651.2727919220924,50.70759046822786L816.3871916010976,134.46885614655912Z" fill="#8ac6cb" stroke="#8ac6cb"></path><path d="M792.1185731235892,-71.68091059662402L816.3871916010976,134.46885614655912L1032.797323660925,117.2977058775723Z" fill="#81bbbb" stroke="#81bbbb"></path><path d="M792.1185731235892,-71.68091059662402L1032.797323660925,117.2977058775723L1010.0205257814378,-116.60345172509551Z" fill="#83b9b2" stroke="#83b9b2"></path><path d="M1010.0205257814378,-116.60345172509551L1032.797323660925,117.2977058775723L1099.2243048548698,-70.27572548948228Z" fill="#80b2a5" stroke="#80b2a5"></path><path d="M1010.0205257814378,-116.60345172509551L1099.2243048548698,-70.27572548948228L1328.4072950016707,-122.31805237010121Z" fill="#80ab98" stroke="#80ab98"></path><path d="M1099.2243048548698,-70.27572548948228L1032.797323660925,117.2977058775723L1137.5629508960992,104.77825786918402Z" fill="#7cada0" stroke="#7cada0"></path><path d="M1099.2243048548698,-70.27572548948228L1137.5629508960992,104.77825786918402L1328.4072950016707,-122.31805237010121Z" fill="#80a793" stroke="#80a793"></path><path d="M1328.4072950016707,-122.31805237010121L1137.5629508960992,104.77825786918402L1323.2513952534646,134.511253349483Z" fill="#7da189" stroke="#7da189"></path><path d="M1328.4072950016707,-122.31805237010121L1323.2513952534646,134.511253349483L1412.7017472311854,-54.6418531704694Z" fill="#809b80" stroke="#809b80"></path><path d="M1412.7017472311854,-54.6418531704694L1323.2513952534646,134.511253349483L1461.6667864657938,128.5805470123887Z" fill="#7a9580" stroke="#7a9580"></path><path d="M-66.06825373135507,76.27788143232465L-125.53386189043522,358.83761960081756L-54.81962364166975,246.79013879969716Z" fill="#e4f2fe" stroke="#e4f2fe"></path><path d="M-66.06825373135507,76.27788143232465L-54.81962364166975,246.79013879969716L97.81712718307972,178.68717469274998Z" fill="#eef1fc" stroke="#eef1fc"></path><path d="M-66.06825373135507,76.27788143232465L97.81712718307972,178.68717469274998L15.047111716121435,28.557501258328557Z" fill="#f1f2fb" stroke="#f1f2fb"></path><path d="M214.4296894222498,120.7685393281281L97.81712718307972,178.68717469274998L213.08890661224723,225.45849309302866Z" fill="#d8e3f3" stroke="#d8e3f3"></path><path d="M214.4296894222498,120.7685393281281L213.08890661224723,225.45849309302866L353.1235731113702,195.37049325183034Z" fill="#cedcf0" stroke="#cedcf0"></path><path d="M214.4296894222498,120.7685393281281L353.1235731113702,195.37049325183034L413.0449358560145,119.27139708772302Z" fill="#c5d9ed" stroke="#c5d9ed"></path><path d="M413.0449358560145,119.27139708772302L353.1235731113702,195.37049325183034L544.3199204932898,217.92439148761332Z" fill="#afd1e9" stroke="#afd1e9"></path><path d="M413.0449358560145,119.27139708772302L544.3199204932898,217.92439148761332L480.7090070284903,47.653605407103896Z" fill="#acd0e8" stroke="#acd0e8"></path><path d="M480.7090070284903,47.653605407103896L544.3199204932898,217.92439148761332L618.6138344183564,194.0934588946402Z" fill="#9fcbe2" stroke="#9fcbe2"></path><path d="M480.7090070284903,47.653605407103896L618.6138344183564,194.0934588946402L651.2727919220924,50.70759046822786Z" fill="#9eccde" stroke="#9eccde"></path><path d="M651.2727919220924,50.70759046822786L618.6138344183564,194.0934588946402L816.3871916010976,134.46885614655912Z" fill="#8bc5d2" stroke="#8bc5d2"></path><path d="M816.3871916010976,134.46885614655912L618.6138344183564,194.0934588946402L880.4123662691563,205.2022812422365Z" fill="#7ebec9" stroke="#7ebec9"></path><path d="M816.3871916010976,134.46885614655912L880.4123662691563,205.2022812422365L1032.797323660925,117.2977058775723Z" fill="#78b6b7" stroke="#78b6b7"></path><path d="M1032.797323660925,117.2977058775723L880.4123662691563,205.2022812422365L1016.5012808237225,181.32218562997878Z" fill="#74b0ae" stroke="#74b0ae"></path><path d="M1032.797323660925,117.2977058775723L1016.5012808237225,181.32218562997878L1145.5997893307358,201.75211935304105Z" fill="#72a9a3" stroke="#72a9a3"></path><path d="M1032.797323660925,117.2977058775723L1145.5997893307358,201.75211935304105L1137.5629508960992,104.77825786918402Z" fill="#74a89e" stroke="#74a89e"></path><path d="M1137.5629508960992,104.77825786918402L1145.5997893307358,201.75211935304105L1270.2987219113857,232.88939435966313Z" fill="#71a093" stroke="#71a093"></path><path d="M1137.5629508960992,104.77825786918402L1270.2987219113857,232.88939435966313L1323.2513952534646,134.511253349483Z" fill="#739d8c" stroke="#739d8c"></path><path d="M1323.2513952534646,134.511253349483L1270.2987219113857,232.88939435966313L1461.1974532250315,218.71914960443974Z" fill="#6e937f" stroke="#6e937f"></path><path d="M1323.2513952534646,134.511253349483L1461.1974532250315,218.71914960443974L1461.6667864657938,128.5805470123887Z" fill="#739180" stroke="#739180"></path><path d="M-54.81962364166975,246.79013879969716L-125.53386189043522,358.83761960081756L56.261823596432805,329.2264789156616Z" fill="#cde5fa" stroke="#cde5fa"></path><path d="M-54.81962364166975,246.79013879969716L56.261823596432805,329.2264789156616L97.81712718307972,178.68717469274998Z" fill="#d5e6f8" stroke="#d5e6f8"></path><path d="M97.81712718307972,178.68717469274998L56.261823596432805,329.2264789156616L213.08890661224723,225.45849309302866Z" fill="#cde0f4" stroke="#cde0f4"></path><path d="M213.08890661224723,225.45849309302866L56.261823596432805,329.2264789156616L198.40592628344893,422.4515524506569Z" fill="#b2d5f1" stroke="#b2d5f1"></path><path d="M213.08890661224723,225.45849309302866L198.40592628344893,422.4515524506569L317.2721089236438,433.950681919232Z" fill="#9fcaec" stroke="#9fcaec"></path><path d="M213.08890661224723,225.45849309302866L317.2721089236438,433.950681919232L353.1235731113702,195.37049325183034Z" fill="#abcfed" stroke="#abcfed"></path><path d="M353.1235731113702,195.37049325183034L317.2721089236438,433.950681919232L580.2449061255902,335.50046145915985Z" fill="#8cc3e7" stroke="#8cc3e7"></path><path d="M353.1235731113702,195.37049325183034L580.2449061255902,335.50046145915985L544.3199204932898,217.92439148761332Z" fill="#92c6e6" stroke="#92c6e6"></path><path d="M544.3199204932898,217.92439148761332L580.2449061255902,335.50046145915985L618.6138344183564,194.0934588946402Z" fill="#85c1dc" stroke="#85c1dc"></path><path d="M618.6138344183564,194.0934588946402L580.2449061255902,335.50046145915985L699.0976129844785,419.3441616464406Z" fill="#6bb8d5" stroke="#6bb8d5"></path><path d="M618.6138344183564,194.0934588946402L699.0976129844785,419.3441616464406L881.7166085354984,318.893353510648Z" fill="#5db3ca" stroke="#5db3ca"></path><path d="M618.6138344183564,194.0934588946402L881.7166085354984,318.893353510648L880.4123662691563,205.2022812422365Z" fill="#6db7c5" stroke="#6db7c5"></path><path d="M880.4123662691563,205.2022812422365L881.7166085354984,318.893353510648L1016.5012808237225,181.32218562997878Z" fill="#67aeb4" stroke="#67aeb4"></path><path d="M1016.5012808237225,181.32218562997878L881.7166085354984,318.893353510648L921.0851572081447,379.88647816702724Z" fill="#56a7b0" stroke="#56a7b0"></path><path d="M1016.5012808237225,181.32218562997878L921.0851572081447,379.88647816702724L1114.9401897378266,410.1031356677413Z" fill="#4a9da6" stroke="#4a9da6"></path><path d="M1016.5012808237225,181.32218562997878L1114.9401897378266,410.1031356677413L1145.5997893307358,201.75211935304105Z" fill="#5a9e9d" stroke="#5a9e9d"></path><path d="M1145.5997893307358,201.75211935304105L1114.9401897378266,410.1031356677413L1270.2987219113857,232.88939435966313Z" fill="#569692" stroke="#569692"></path><path d="M1270.2987219113857,232.88939435966313L1114.9401897378266,410.1031356677413L1295.3145685046911,434.1351492796093Z" fill="#408b8a" stroke="#408b8a"></path><path d="M1270.2987219113857,232.88939435966313L1295.3145685046911,434.1351492796093L1401.350919753313,373.5525947995484Z" fill="#44857e" stroke="#44857e"></path><path d="M1270.2987219113857,232.88939435966313L1401.350919753313,373.5525947995484L1461.1974532250315,218.71914960443974Z" fill="#57897e" stroke="#57897e"></path><path d="M1461.1974532250315,218.71914960443974L1401.350919753313,373.5525947995484L1434.9259157013148,576.4987119846046Z" fill="#387978" stroke="#387978"></path><path d="M1461.1974532250315,218.71914960443974L1434.9259157013148,576.4987119846046L1445.1486521959305,814.1925525292754Z" fill="#156c5e" stroke="#156c5e"></path><path d="M1461.1974532250315,218.71914960443974L1445.1486521959305,814.1925525292754L1452.0463859662414,1008.7437246646732Z" fill="#125c41" stroke="#125c41"></path><path d="M-125.53386189043522,358.83761960081756L-130.8240519091487,567.5328603107482L18.616573624312878,574.8420292697847Z" fill="#9dd8e3" stroke="#9dd8e3"></path><path d="M-125.53386189043522,358.83761960081756L18.616573624312878,574.8420292697847L56.261823596432805,329.2264789156616Z" fill="#aedaee" stroke="#aedaee"></path><path d="M56.261823596432805,329.2264789156616L18.616573624312878,574.8420292697847L198.40592628344893,422.4515524506569Z" fill="#9ccfe6" stroke="#9ccfe6"></path><path d="M198.40592628344893,422.4515524506569L18.616573624312878,574.8420292697847L176.2399760261178,546.1233348213136Z" fill="#87c7d7" stroke="#87c7d7"></path><path d="M198.40592628344893,422.4515524506569L176.2399760261178,546.1233348213136L317.2721089236438,433.950681919232Z" fill="#86c3dc" stroke="#86c3dc"></path><path d="M317.2721089236438,433.950681919232L176.2399760261178,546.1233348213136L319.57019068300724,567.4815732892603Z" fill="#75bcd1" stroke="#75bcd1"></path><path d="M317.2721089236438,433.950681919232L319.57019068300724,567.4815732892603L491.8783772550523,476.2136180419475Z" fill="#68b7d2" stroke="#68b7d2"></path><path d="M317.2721089236438,433.950681919232L491.8783772550523,476.2136180419475L580.2449061255902,335.50046145915985Z" fill="#6bb7dc" stroke="#6bb7dc"></path><path d="M580.2449061255902,335.50046145915985L491.8783772550523,476.2136180419475L699.0976129844785,419.3441616464406Z" fill="#59b1d1" stroke="#59b1d1"></path><path d="M699.0976129844785,419.3441616464406L491.8783772550523,476.2136180419475L684.5677199307829,510.68132241256535Z" fill="#46abc3" stroke="#46abc3"></path><path d="M699.0976129844785,419.3441616464406L684.5677199307829,510.68132241256535L796.0946619696915,562.6789368409663Z" fill="#2fa3b3" stroke="#2fa3b3"></path><path d="M699.0976129844785,419.3441616464406L796.0946619696915,562.6789368409663L921.0851572081447,379.88647816702724Z" fill="#34a1b1" stroke="#34a1b1"></path><path d="M699.0976129844785,419.3441616464406L921.0851572081447,379.88647816702724L881.7166085354984,318.893353510648Z" fill="#46a6bc" stroke="#46a6bc"></path><path d="M921.0851572081447,379.88647816702724L796.0946619696915,562.6789368409663L1026.6794324107468,581.7043857648969Z" fill="#219599" stroke="#219599"></path><path d="M921.0851572081447,379.88647816702724L1026.6794324107468,581.7043857648969L1114.9401897378266,410.1031356677413Z" fill="#289295" stroke="#289295"></path><path d="M1114.9401897378266,410.1031356677413L1026.6794324107468,581.7043857648969L1110.185912149027,561.886544181034Z" fill="#1a8882" stroke="#1a8882"></path><path d="M1114.9401897378266,410.1031356677413L1110.185912149027,561.886544181034L1242.9205674491823,552.7472401130944Z" fill="#1c847a" stroke="#1c847a"></path><path d="M1114.9401897378266,410.1031356677413L1242.9205674491823,552.7472401130944L1295.3145685046911,434.1351492796093Z" fill="#26837a" stroke="#26837a"></path><path d="M1295.3145685046911,434.1351492796093L1242.9205674491823,552.7472401130944L1434.9259157013148,576.4987119846046Z" fill="#197762" stroke="#197762"></path><path d="M1295.3145685046911,434.1351492796093L1434.9259157013148,576.4987119846046L1401.350919753313,373.5525947995484Z" fill="#27776b" stroke="#27776b"></path><path d="M-130.8240519091487,567.5328603107482L-30.815760623663664,1153.4852067846805L-40.31714712269604,1013.0272863339633Z" fill="#91a98f" stroke="#91a98f"></path><path d="M-130.8240519091487,567.5328603107482L-40.31714712269604,1013.0272863339633L-70.27536710724235,779.7152259014547Z" fill="#91b8aa" stroke="#91b8aa"></path><path d="M-130.8240519091487,567.5328603107482L-70.27536710724235,779.7152259014547L-65.00196944922209,631.477488996461Z" fill="#91c8c4" stroke="#91c8c4"></path><path d="M-130.8240519091487,567.5328603107482L-65.00196944922209,631.477488996461L18.616573624312878,574.8420292697847Z" fill="#91ced1" stroke="#91ced1"></path><path d="M18.616573624312878,574.8420292697847L-65.00196944922209,631.477488996461L17.36153301782906,668.0689049139619Z" fill="#8ec6c8" stroke="#8ec6c8"></path><path d="M18.616573624312878,574.8420292697847L17.36153301782906,668.0689049139619L176.2399760261178,546.1233348213136Z" fill="#85c3ca" stroke="#85c3ca"></path><path d="M176.2399760261178,546.1233348213136L17.36153301782906,668.0689049139619L270.40545953437686,689.2047550901771Z" fill="#7bb8bf" stroke="#7bb8bf"></path><path d="M176.2399760261178,546.1233348213136L270.40545953437686,689.2047550901771L319.57019068300724,567.4815732892603Z" fill="#6fb4c1" stroke="#6fb4c1"></path><path d="M319.57019068300724,567.4815732892603L270.40545953437686,689.2047550901771L384.7851036116481,666.3915176969022Z" fill="#63abb6" stroke="#63abb6"></path><path d="M319.57019068300724,567.4815732892603L384.7851036116481,666.3915176969022L491.8783772550523,476.2136180419475Z" fill="#56afc2" stroke="#56afc2"></path><path d="M491.8783772550523,476.2136180419475L384.7851036116481,666.3915176969022L540.886781970039,698.4176569059491Z" fill="#49a5b7" stroke="#49a5b7"></path><path d="M491.8783772550523,476.2136180419475L540.886781970039,698.4176569059491L684.5677199307829,510.68132241256535Z" fill="#3aa6b8" stroke="#3aa6b8"></path><path d="M684.5677199307829,510.68132241256535L540.886781970039,698.4176569059491L681.5479202661663,707.1500595845282Z" fill="#309aa2" stroke="#309aa2"></path><path d="M684.5677199307829,510.68132241256535L681.5479202661663,707.1500595845282L796.0946619696915,562.6789368409663Z" fill="#239aa2" stroke="#239aa2"></path><path d="M796.0946619696915,562.6789368409663L681.5479202661663,707.1500595845282L794.2600945662707,679.8542156070471Z" fill="#1f9292" stroke="#1f9292"></path><path d="M796.0946619696915,562.6789368409663L794.2600945662707,679.8542156070471L1002.6016017794609,691.9725587032735Z" fill="#198b85" stroke="#198b85"></path><path d="M796.0946619696915,562.6789368409663L1002.6016017794609,691.9725587032735L1026.6794324107468,581.7043857648969Z" fill="#158982" stroke="#158982"></path><path d="M1026.6794324107468,581.7043857648969L1002.6016017794609,691.9725587032735L1079.6202732995152,652.020007437095Z" fill="#127f70" stroke="#127f70"></path><path d="M1026.6794324107468,581.7043857648969L1079.6202732995152,652.020007437095L1110.185912149027,561.886544181034Z" fill="#128174" stroke="#128174"></path><path d="M1110.185912149027,561.886544181034L1079.6202732995152,652.020007437095L1216.8969138991088,695.2444670721889Z" fill="#127864" stroke="#127864"></path><path d="M1110.185912149027,561.886544181034L1216.8969138991088,695.2444670721889L1242.9205674491823,552.7472401130944Z" fill="#127864" stroke="#127864"></path><path d="M1242.9205674491823,552.7472401130944L1216.8969138991088,695.2444670721889L1386.7099288199097,725.6459588371217Z" fill="#126b4c" stroke="#126b4c"></path><path d="M1242.9205674491823,552.7472401130944L1386.7099288199097,725.6459588371217L1434.9259157013148,576.4987119846046Z" fill="#126a4d" stroke="#126a4d"></path><path d="M1434.9259157013148,576.4987119846046L1386.7099288199097,725.6459588371217L1445.1486521959305,814.1925525292754Z" fill="#125b3b" stroke="#125b3b"></path><path d="M-65.00196944922209,631.477488996461L-70.27536710724235,779.7152259014547L17.36153301782906,668.0689049139619Z" fill="#91c0bb" stroke="#91c0bb"></path><path d="M17.36153301782906,668.0689049139619L-70.27536710724235,779.7152259014547L108.46471575088799,803.269712543115Z" fill="#8bb5ad" stroke="#8bb5ad"></path><path d="M17.36153301782906,668.0689049139619L108.46471575088799,803.269712543115L270.40545953437686,689.2047550901771Z" fill="#7eb0ae" stroke="#7eb0ae"></path><path d="M270.40545953437686,689.2047550901771L108.46471575088799,803.269712543115L241.28323894925416,871.8744471576065Z" fill="#75a29d" stroke="#75a29d"></path><path d="M270.40545953437686,689.2047550901771L241.28323894925416,871.8744471576065L349.6848863828927,852.569194380194Z" fill="#699b96" stroke="#699b96"></path><path d="M270.40545953437686,689.2047550901771L349.6848863828927,852.569194380194L384.7851036116481,666.3915176969022Z" fill="#61a0a3" stroke="#61a0a3"></path><path d="M384.7851036116481,666.3915176969022L349.6848863828927,852.569194380194L531.3008066732436,781.3607530854642Z" fill="#529799" stroke="#529799"></path><path d="M384.7851036116481,666.3915176969022L531.3008066732436,781.3607530854642L540.886781970039,698.4176569059491Z" fill="#4798a1" stroke="#4798a1"></path><path d="M540.886781970039,698.4176569059491L531.3008066732436,781.3607530854642L681.5479202661663,707.1500595845282Z" fill="#389195" stroke="#389195"></path><path d="M681.5479202661663,707.1500595845282L531.3008066732436,781.3607530854642L668.4213782474399,851.8704534508288Z" fill="#318985" stroke="#318985"></path><path d="M681.5479202661663,707.1500595845282L668.4213782474399,851.8704534508288L775.2397483214736,811.1807691771537Z" fill="#25847a" stroke="#25847a"></path><path d="M681.5479202661663,707.1500595845282L775.2397483214736,811.1807691771537L794.2600945662707,679.8542156070471Z" fill="#1f8981" stroke="#1f8981"></path><path d="M794.2600945662707,679.8542156070471L775.2397483214736,811.1807691771537L1002.6016017794609,691.9725587032735Z" fill="#1a8275" stroke="#1a8275"></path><path d="M1002.6016017794609,691.9725587032735L775.2397483214736,811.1807691771537L1030.3630669601262,866.5769722033292Z" fill="#15745d" stroke="#15745d"></path><path d="M1002.6016017794609,691.9725587032735L1030.3630669601262,866.5769722033292L1154.0921249706298,847.7262700069696Z" fill="#126a4b" stroke="#126a4b"></path><path d="M1002.6016017794609,691.9725587032735L1154.0921249706298,847.7262700069696L1079.6202732995152,652.020007437095Z" fill="#127158" stroke="#127158"></path><path d="M1079.6202732995152,652.020007437095L1154.0921249706298,847.7262700069696L1216.8969138991088,695.2444670721889Z" fill="#126c4e" stroke="#126c4e"></path><path d="M1216.8969138991088,695.2444670721889L1154.0921249706298,847.7262700069696L1237.780638160184,769.7729657962918Z" fill="#12633f" stroke="#12633f"></path><path d="M1216.8969138991088,695.2444670721889L1237.780638160184,769.7729657962918L1386.7099288199097,725.6459588371217Z" fill="#12623e" stroke="#12623e"></path><path d="M1386.7099288199097,725.6459588371217L1237.780638160184,769.7729657962918L1445.1486521959305,814.1925525292754Z" fill="#12582e" stroke="#12582e"></path><path d="M-70.27536710724235,779.7152259014547L-40.31714712269604,1013.0272863339633L108.46471575088799,803.269712543115Z" fill="#8da996" stroke="#8da996"></path><path d="M108.46471575088799,803.269712543115L-40.31714712269604,1013.0272863339633L21.59185303375125,1034.2371675744653Z" fill="#899d83" stroke="#899d83"></path><path d="M108.46471575088799,803.269712543115L21.59185303375125,1034.2371675744653L241.28323894925416,871.8744471576065Z" fill="#7f9b89" stroke="#7f9b89"></path><path d="M241.28323894925416,871.8744471576065L21.59185303375125,1034.2371675744653L254.49262334033847,976.6824441310018Z" fill="#79917b" stroke="#79917b"></path><path d="M241.28323894925416,871.8744471576065L254.49262334033847,976.6824441310018L349.6848863828927,852.569194380194Z" fill="#6a9083" stroke="#6a9083"></path><path d="M349.6848863828927,852.569194380194L254.49262334033847,976.6824441310018L395.18902419134974,996.1550929024816Z" fill="#618878" stroke="#618878"></path><path d="M349.6848863828927,852.569194380194L395.18902419134974,996.1550929024816L577.5950401090086,956.529030483216Z" fill="#4f8175" stroke="#4f8175"></path><path d="M349.6848863828927,852.569194380194L577.5950401090086,956.529030483216L531.3008066732436,781.3607530854642Z" fill="#478783" stroke="#478783"></path><path d="M531.3008066732436,781.3607530854642L577.5950401090086,956.529030483216L668.4213782474399,851.8704534508288Z" fill="#378178" stroke="#378178"></path><path d="M668.4213782474399,851.8704534508288L577.5950401090086,956.529030483216L733.3920763526112,916.238951375708Z" fill="#2c7967" stroke="#2c7967"></path><path d="M668.4213782474399,851.8704534508288L733.3920763526112,916.238951375708L775.2397483214736,811.1807691771537Z" fill="#237b6a" stroke="#237b6a"></path><path d="M775.2397483214736,811.1807691771537L733.3920763526112,916.238951375708L856.2024992331862,994.3592338263988Z" fill="#1d7259" stroke="#1d7259"></path><path d="M775.2397483214736,811.1807691771537L856.2024992331862,994.3592338263988L1030.3630669601262,866.5769722033292Z" fill="#186c4f" stroke="#186c4f"></path><path d="M1030.3630669601262,866.5769722033292L856.2024992331862,994.3592338263988L967.520715566352,997.6753394678235Z" fill="#14603a" stroke="#14603a"></path><path d="M1030.3630669601262,866.5769722033292L967.520715566352,997.6753394678235L1100.735949575901,1001.2092049699277Z" fill="#125a2f" stroke="#125a2f"></path><path d="M1030.3630669601262,866.5769722033292L1100.735949575901,1001.2092049699277L1154.0921249706298,847.7262700069696Z" fill="#125b31" stroke="#125b31"></path><path d="M1154.0921249706298,847.7262700069696L1100.735949575901,1001.2092049699277L1261.6599370446056,937.7666909247637Z" fill="#125323" stroke="#125323"></path><path d="M1154.0921249706298,847.7262700069696L1261.6599370446056,937.7666909247637L1237.780638160184,769.7729657962918Z" fill="#12592d" stroke="#12592d"></path><path d="M1237.780638160184,769.7729657962918L1261.6599370446056,937.7666909247637L1445.1486521959305,814.1925525292754Z" fill="#125322" stroke="#125322"></path><path d="M1445.1486521959305,814.1925525292754L1261.6599370446056,937.7666909247637L1452.0463859662414,1008.7437246646732Z" fill="#12450f" stroke="#12450f"></path><path d="M-40.31714712269604,1013.0272863339633L-30.815760623663664,1153.4852067846805L30.110613042488694,1072.2035311628133Z" fill="#8e917c" stroke="#8e917c"></path><path d="M-40.31714712269604,1013.0272863339633L30.110613042488694,1072.2035311628133L21.59185303375125,1034.2371675744653Z" fill="#8c947c" stroke="#8c947c"></path><path d="M21.59185303375125,1034.2371675744653L30.110613042488694,1072.2035311628133L254.49262334033847,976.6824441310018Z" fill="#818e77" stroke="#818e77"></path><path d="M254.49262334033847,976.6824441310018L30.110613042488694,1072.2035311628133L276.3784048240632,1069.22581538558Z" fill="#778673" stroke="#778673"></path><path d="M254.49262334033847,976.6824441310018L276.3784048240632,1069.22581538558L395.18902419134974,996.1550929024816Z" fill="#66816f" stroke="#66816f"></path><path d="M395.18902419134974,996.1550929024816L276.3784048240632,1069.22581538558L375.6507873348892,1124.07505790703Z" fill="#5f786d" stroke="#5f786d"></path><path d="M395.18902419134974,996.1550929024816L375.6507873348892,1124.07505790703L531.7262295261025,1155.8718385733664Z" fill="#50706a" stroke="#50706a"></path><path d="M395.18902419134974,996.1550929024816L531.7262295261025,1155.8718385733664L577.5950401090086,956.529030483216Z" fill="#447267" stroke="#447267"></path><path d="M577.5950401090086,956.529030483216L531.7262295261025,1155.8718385733664L690.0234778504819,1086.8444007262588Z" fill="#366a5c" stroke="#366a5c"></path><path d="M577.5950401090086,956.529030483216L690.0234778504819,1086.8444007262588L733.3920763526112,916.238951375708Z" fill="#2b6f56" stroke="#2b6f56"></path><path d="M733.3920763526112,916.238951375708L690.0234778504819,1086.8444007262588L796.6864543687552,1076.7034437786788Z" fill="#20674d" stroke="#20674d"></path><path d="M733.3920763526112,916.238951375708L796.6864543687552,1076.7034437786788L856.2024992331862,994.3592338263988Z" fill="#1d6746" stroke="#1d6746"></path><path d="M856.2024992331862,994.3592338263988L796.6864543687552,1076.7034437786788L919.424485238269,1144.8751473147422Z" fill="#1a593e" stroke="#1a593e"></path><path d="M856.2024992331862,994.3592338263988L919.424485238269,1144.8751473147422L967.520715566352,997.6753394678235Z" fill="#165837" stroke="#165837"></path><path d="M967.520715566352,997.6753394678235L919.424485238269,1144.8751473147422L1100.735949575901,1001.2092049699277Z" fill="#12522c" stroke="#12522c"></path><path d="M1100.735949575901,1001.2092049699277L919.424485238269,1144.8751473147422L1168.7239152006805,1151.4424242451787Z" fill="#124724" stroke="#124724"></path><path d="M1100.735949575901,1001.2092049699277L1168.7239152006805,1151.4424242451787L1243.3505407255143,1092.667273376137Z" fill="#124116" stroke="#124116"></path><path d="M1100.735949575901,1001.2092049699277L1243.3505407255143,1092.667273376137L1261.6599370446056,937.7666909247637Z" fill="#124812" stroke="#124812"></path><path d="M1261.6599370446056,937.7666909247637L1243.3505407255143,1092.667273376137L1452.0463859662414,1008.7437246646732Z" fill="#123f03" stroke="#123f03"></path><path d="M1452.0463859662414,1008.7437246646732L1243.3505407255143,1092.667273376137L1376.3142670411617,1175.0258388463408Z" fill="#123200" stroke="#123200"></path><path d="M-30.815760623663664,1153.4852067846805L1376.3142670411617,1175.0258388463408L531.7262295261025,1155.8718385733664Z" fill="#325d5a" stroke="#325d5a"></path><path d="M-30.815760623663664,1153.4852067846805L531.7262295261025,1155.8718385733664L375.6507873348892,1124.07505790703Z" fill="#69726f" stroke="#69726f"></path><path d="M-30.815760623663664,1153.4852067846805L375.6507873348892,1124.07505790703L276.3784048240632,1069.22581538558Z" fill="#757c73" stroke="#757c73"></path><path d="M-30.815760623663664,1153.4852067846805L276.3784048240632,1069.22581538558L30.110613042488694,1072.2035311628133Z" fill="#828778" stroke="#828778"></path><path d="M531.7262295261025,1155.8718385733664L1376.3142670411617,1175.0258388463408L919.424485238269,1144.8751473147422Z" fill="#154933" stroke="#154933"></path><path d="M531.7262295261025,1155.8718385733664L919.424485238269,1144.8751473147422L690.0234778504819,1086.8444007262588Z" fill="#245c50" stroke="#245c50"></path><path d="M690.0234778504819,1086.8444007262588L919.424485238269,1144.8751473147422L796.6864543687552,1076.7034437786788Z" fill="#1d5a45" stroke="#1d5a45"></path><path d="M919.424485238269,1144.8751473147422L1376.3142670411617,1175.0258388463408L1168.7239152006805,1151.4424242451787Z" fill="#123918" stroke="#123918"></path><path d="M1168.7239152006805,1151.4424242451787L1376.3142670411617,1175.0258388463408L1243.3505407255143,1092.667273376137Z" fill="#12340a" stroke="#12340a"></path></g></svg>