<?xml version="1.0" encoding="utf-8"?>
<!-- Generator: Adobe Illustrator 17.0.0, SVG Export Plug-In . SVG Version: 6.00 Build 0)  -->
<!DOCTYPE svg PUBLIC "-//W3C//DTD SVG 1.1//EN" "http://www.w3.org/Graphics/SVG/1.1/DTD/svg11.dtd">
<svg version="1.1" id="Layer_1" xmlns="http://www.w3.org/2000/svg" xmlns:xlink="http://www.w3.org/1999/xlink" x="0px" y="0px"
	 width="1507px" height="942px" viewBox="0 0 1507 942" enable-background="new 0 0 1507 942" xml:space="preserve">
<g>
	<path fill="#FDFFE0" stroke="#FDFFE0" d="M1507.467-345.336l-363.611-29.204l43.61,110.368L1507.467-345.336z"/>
	<path fill="#FBFEE3" stroke="#FBFEE3" d="M1507.467-345.336l-320,81.164l330.196,39.517L1507.467-345.336z"/>
	<path fill="#ECF8DB" stroke="#ECF8DB" d="M1517.663-224.655l-330.196-39.517l51.411,192.955L1517.663-224.655z"/>
	<path fill="#E0F3DD" stroke="#E0F3DD" d="M1517.663-224.655L1238.877-71.217l291.843,5.445L1517.663-224.655z"/>
	<path fill="#CFECD8" stroke="#CFECD8" d="M1530.72-65.772l-291.843-5.445l162.814,147.904L1530.72-65.772z"/>
	<path fill="#BCE5DD" stroke="#BCE5DD" d="M1530.72-65.772L1401.692,76.686l111.376,165.973L1530.72-65.772z"/>
	<path fill="#A7DDE1" stroke="#A7DDE1" d="M1530.72-65.772l-17.652,308.432l4.727,170.756L1530.72-65.772z"/>
	<path fill="#9ED5E0" stroke="#9ED5E0" d="M1530.72-65.772l-12.925,479.188l3.684,124.698L1530.72-65.772z"/>
	<path fill="#C0E8D4" stroke="#C0E8D4" d="M1401.692,76.686L1238.877-71.217l-26.707,201.914L1401.692,76.686z"/>
	<path fill="#B0E1DC" stroke="#B0E1DC" d="M1401.692,76.686l-189.521,54.011l300.897,111.963L1401.692,76.686z"/>
	<path fill="#A5DDDA" stroke="#A5DDDA" d="M1513.068,242.66l-300.897-111.963l-42.95,105.468L1513.068,242.66z"/>
	<path fill="#9ED5DE" stroke="#9ED5DE" d="M1513.068,242.66l-343.847-6.495l348.574,177.251L1513.068,242.66z"/>
	<path fill="#96D0D7" stroke="#96D0D7" d="M1517.795,413.416l-348.574-177.251l-52.293,160.156L1517.795,413.416z"/>
	<path fill="#92C7D4" stroke="#92C7D4" d="M1517.795,413.416l-400.868-17.095l31.838,106.337L1517.795,413.416z"/>
	<path fill="#97C2DA" stroke="#97C2DA" d="M1517.795,413.416l-369.029,89.242l372.713,35.456L1517.795,413.416z"/>
	<path fill="#90B6CF" stroke="#90B6CF" d="M1521.479,538.113l-372.713-35.456l34.64,206.132L1521.479,538.113z"/>
	<path fill="#94ABCE" stroke="#94ABCE" d="M1521.479,538.113l-338.073,170.676l234.716,16.105L1521.479,538.113z"/>
	<path fill="#93A3CE" stroke="#93A3CE" d="M1521.479,538.113l-103.357,186.781l60.963,142.443L1521.479,538.113z"/>
	<path fill="#8B9BC1" stroke="#8B9BC1" d="M1418.122,724.894l-234.716-16.105l16.59,179.617L1418.122,724.894z"/>
	<path fill="#9294C2" stroke="#9294C2" d="M1418.122,724.894l-218.126,163.512l279.089-21.069L1418.122,724.894z"/>
	<path fill="#9188BC" stroke="#9188BC" d="M1479.085,867.337l-279.089,21.069l202.929,77.481L1479.085,867.337z"/>
	<path fill="#9080BA" stroke="#9080BA" d="M1479.085,867.337l-76.161,98.55l22.245,170.215L1479.085,867.337z"/>
	<path fill="#8A82B5" stroke="#8A82B5" d="M1402.925,965.887l-202.929-77.481l24.408,119.388L1402.925,965.887z"/>
	<path fill="#8F80B3" stroke="#8F80B3" d="M1402.925,965.887l-178.521,41.907l200.766,128.308L1402.925,965.887z"/>
	<path fill="#8980AD" stroke="#8980AD" d="M1425.169,1136.102l-200.766-128.308l6.942,120.396L1425.169,1136.102z"/>
	<path fill="#7E80A5" stroke="#7E80A5" d="M1425.169,1136.102l-193.824-7.911l-277.58,80.919L1425.169,1136.102z"/>
	<path fill="#B6F1DD" stroke="#B6F1DD" d="M1143.856-374.54l-805.445-19.724l564.081,18.579L1143.856-374.54z"/>
	<path fill="#E7FFD7" stroke="#E7FFD7" d="M1143.856-374.54l-241.364-1.145l284.974,111.512L1143.856-374.54z"/>
	<path fill="#D7FCD2" stroke="#D7FCD2" d="M1187.467-264.173L902.493-375.685l-31.216,210.542L1187.467-264.173z"/>
	<path fill="#D3F7D0" stroke="#D3F7D0" d="M1187.467-264.173l-316.19,99.03l367.601,93.926L1187.467-264.173z"/>
	<path fill="#BDF2C9" stroke="#BDF2C9" d="M1238.877-71.217l-367.601-93.926l51.492,110.042L1238.877-71.217z"/>
	<path fill="#B4EDC7" stroke="#B4EDC7" d="M1238.877-71.217L922.769-55.101l74.74,118.262L1238.877-71.217z"/>
	<path fill="#B3E8CE" stroke="#B3E8CE" d="M1238.877-71.217L997.509,63.161l214.662,67.536L1238.877-71.217z"/>
	<path fill="#98E2CC" stroke="#98E2CC" d="M1212.171,130.697L997.509,63.161L941.611,209.31L1212.171,130.697z"/>
	<path fill="#94DED0" stroke="#94DED0" d="M1212.171,130.697L941.611,209.31l227.609,26.855L1212.171,130.697z"/>
	<path fill="#7DD7CE" stroke="#7DD7CE" d="M1169.221,236.165L941.611,209.31l-22.02,165.586L1169.221,236.165z"/>
	<path fill="#82D2CE" stroke="#82D2CE" d="M1169.221,236.165l-249.63,138.731l197.336,21.425L1169.221,236.165z"/>
	<path fill="#76C7CA" stroke="#76C7CA" d="M1116.927,396.32l-197.336-21.425L989.74,521.46L1116.927,396.32z"/>
	<path fill="#7EC4CB" stroke="#7EC4CB" d="M1116.927,396.32L989.74,521.46l159.025-18.803L1116.927,396.32z"/>
	<path fill="#7DB7C7" stroke="#7DB7C7" d="M1148.766,502.657L989.74,521.46l193.666,187.329L1148.766,502.657z"/>
	<path fill="#78AEC1" stroke="#78AEC1" d="M1183.406,708.789L989.74,521.46l23.335,190.278L1183.406,708.789z"/>
	<path fill="#7D9CBB" stroke="#7D9CBB" d="M1183.406,708.789l-170.331,2.949l186.92,176.668L1183.406,708.789z"/>
	<path fill="#7494B4" stroke="#7494B4" d="M1199.996,888.406l-186.92-176.668l-46.779,177.081L1199.996,888.406z"/>
	<path fill="#7385AD" stroke="#7385AD" d="M1199.996,888.406l-233.699,0.413l47.241,157.677L1199.996,888.406z"/>
	<path fill="#7B80AE" stroke="#7B80AE" d="M1199.996,888.406l-186.458,158.089l210.866-38.701L1199.996,888.406z"/>
	<path fill="#7B80A9" stroke="#7B80A9" d="M1224.403,1007.794l-210.866,38.701l217.808,81.695L1224.403,1007.794z"/>
	<path fill="#7080A0" stroke="#7080A0" d="M1231.346,1128.19l-217.808-81.695l-59.772,162.613L1231.346,1128.19z"/>
	<path fill="#A1DFDD" stroke="#A1DFDD" d="M902.493-375.685l-564.081-18.579l213.768,10.334L902.493-375.685z"/>
	<path fill="#A6EBDC" stroke="#A6EBDC" d="M902.493-375.685l-350.313-8.244l108.133,212.814L902.493-375.685z"/>
	<path fill="#B0EFD6" stroke="#B0EFD6" d="M902.493-375.685l-242.18,204.57l210.964,5.972L902.493-375.685z"/>
	<path fill="#8DE1D4" stroke="#8DE1D4" d="M871.277-165.143l-210.964-5.972l-79.365,85.403L871.277-165.143z"/>
	<path fill="#94E4D1" stroke="#94E4D1" d="M871.277-165.143l-290.329,79.43l341.821,30.612L871.277-165.143z"/>
	<path fill="#76D9CF" stroke="#76D9CF" d="M922.769-55.101L580.948-85.712l81.522,211.98L922.769-55.101z"/>
	<path fill="#87DFCD" stroke="#87DFCD" d="M922.769-55.101L662.47,126.267l335.039-63.106L922.769-55.101z"/>
	<path fill="#78D9CF" stroke="#78D9CF" d="M997.509,63.161L662.47,126.267l279.141,83.043L997.509,63.161z"/>
	<path fill="#52CCD5" stroke="#52CCD5" d="M941.611,209.31L662.47,126.267L579.012,257.43L941.611,209.31z"/>
	<path fill="#56CBD4" stroke="#56CBD4" d="M941.611,209.31l-362.6,48.12l340.579,117.465L941.611,209.31z"/>
	<path fill="#42BAD4" stroke="#42BAD4" d="M919.591,374.896L579.012,257.43l20.475,180.096L919.591,374.896z"/>
	<path fill="#3FB3D3" stroke="#3FB3D3" d="M919.591,374.896l-320.105,62.63l24.56,77.228L919.591,374.896z"/>
	<path fill="#54B9CF" stroke="#54B9CF" d="M919.591,374.896L624.046,514.755l365.694,6.706L919.591,374.896z"/>
	<path fill="#3EA5CD" stroke="#3EA5CD" d="M989.74,521.46l-365.694-6.706l6.576,197.94L989.74,521.46z"/>
	<path fill="#56A4C4" stroke="#56A4C4" d="M989.74,521.46L630.622,712.694l382.454-0.956L989.74,521.46z"/>
	<path fill="#4491C1" stroke="#4491C1" d="M1013.075,711.738l-382.454,0.956l103.278,106.071L1013.075,711.738z"/>
	<path fill="#598FB9" stroke="#598FB9" d="M1013.075,711.738L733.899,818.765l232.397,70.054L1013.075,711.738z"/>
	<path fill="#467CB5" stroke="#467CB5" d="M966.296,888.819l-232.397-70.054l18.775,198.432L966.296,888.819z"/>
	<path fill="#5677AE" stroke="#5677AE" d="M966.296,888.819l-213.622,128.378l260.863,29.299L966.296,888.819z"/>
	<path fill="#4271AC" stroke="#4271AC" d="M1013.538,1046.496l-260.863-29.299l-72.774,103.855L1013.538,1046.496z"/>
	<path fill="#4E75A5" stroke="#4E75A5" d="M1013.538,1046.496l-333.637,74.556l273.865,88.057L1013.538,1046.496z"/>
	<path fill="#3163A6" stroke="#3163A6" d="M953.766,1209.109l-273.865-88.057l-309.305,9.545L953.766,1209.109z"/>
	<path fill="#274099" stroke="#274099" d="M953.766,1209.109l-583.17-78.512l-556.407,92.106L953.766,1209.109z"/>
	<path fill="#99C8D4" stroke="#99C8D4" d="M552.18-383.929l-213.768-10.334l-36.853,242.625L552.18-383.929z"/>
	<path fill="#96D1D4" stroke="#96D1D4" d="M552.18-383.929l-250.621,232.29l358.754-19.476L552.18-383.929z"/>
	<path fill="#85CCD0" stroke="#85CCD0" d="M660.313-171.115l-358.754,19.476l279.389,65.927L660.313-171.115z"/>
	<path fill="#7BBFCB" stroke="#7BBFCB" d="M580.948-85.712l-279.389-65.927l81.37,86.222L580.948-85.712z"/>
	<path fill="#70BFCA" stroke="#70BFCA" d="M580.948-85.712L382.929-65.417l54.156,127.424L580.948-85.712z"/>
	<path fill="#69C4CD" stroke="#69C4CD" d="M580.948-85.712L437.085,62.007l225.385,64.26L580.948-85.712z"/>
	<path fill="#54BDCF" stroke="#54BDCF" d="M662.47,126.267l-225.385-64.26L579.012,257.43L662.47,126.267z"/>
	<path fill="#48B1D0" stroke="#48B1D0" d="M579.012,257.43L437.085,62.007l13.635,234.733L579.012,257.43z"/>
	<path fill="#3DACD1" stroke="#3DACD1" d="M579.012,257.43l-128.291,39.31l148.766,140.785L579.012,257.43z"/>
	<path fill="#389FCE" stroke="#389FCE" d="M599.487,437.526L450.721,296.741l-36.962,153.522L599.487,437.526z"/>
	<path fill="#379ECE" stroke="#379ECE" d="M599.487,437.526l-185.728,12.737l210.287,64.492L599.487,437.526z"/>
	<path fill="#318ECB" stroke="#318ECB" d="M624.046,514.755l-210.287-64.492l-83.951,140.428L624.046,514.755z"/>
	<path fill="#3186C6" stroke="#3186C6" d="M624.046,514.755l-294.239,75.937l140.264,104.061L624.046,514.755z"/>
	<path fill="#348BC6" stroke="#348BC6" d="M624.046,514.755L470.071,694.753l160.551,17.941L624.046,514.755z"/>
	<path fill="#3075BD" stroke="#3075BD" d="M630.622,712.694l-160.551-17.941L435.94,843.602L630.622,712.694z"/>
	<path fill="#3378BC" stroke="#3378BC" d="M630.622,712.694L435.94,843.602l297.96-24.837L630.622,712.694z"/>
	<path fill="#346EB7" stroke="#346EB7" d="M733.899,818.765l-297.96,24.837l316.735,173.594L733.899,818.765z"/>
	<path fill="#2F59AF" stroke="#2F59AF" d="M752.675,1017.197L435.94,843.602l23.038,207.248L752.675,1017.197z"/>
	<path fill="#315FAB" stroke="#315FAB" d="M752.675,1017.197l-293.697,33.653l220.923,70.202L752.675,1017.197z"/>
	<path fill="#2B51A5" stroke="#2B51A5" d="M679.901,1121.052l-220.923-70.202l-88.382,79.747L679.901,1121.052z"/>
	<path fill="#9380B2" stroke="#9380B2" d="M338.412-394.264l-749.228,62.906l194.633,8.632L338.412-394.264z"/>
	<path fill="#959BC1" stroke="#959BC1" d="M338.412-394.264l-554.595,71.538l394.3-31.994L338.412-394.264z"/>
	<path fill="#98B5CA" stroke="#98B5CA" d="M338.412-394.264l-160.295,39.545l123.442,203.08L338.412-394.264z"/>
	<path fill="#8EA9C3" stroke="#8EA9C3" d="M301.559-151.639l-123.442-203.08l-8.614,198.896L301.559-151.639z"/>
	<path fill="#7EACC3" stroke="#7EACC3" d="M301.559-151.639l-132.056-4.184l213.426,90.406L301.559-151.639z"/>
	<path fill="#749DBB" stroke="#749DBB" d="M382.929-65.417l-213.426-90.406L76.827,10.005L382.929-65.417z"/>
	<path fill="#68A5BE" stroke="#68A5BE" d="M382.929-65.417L76.827,10.005l360.258,52.002L382.929-65.417z"/>
	<path fill="#5D96BB" stroke="#5D96BB" d="M437.085,62.007L76.827,10.005l78.534,101.953L437.085,62.007z"/>
	<path fill="#4DA2C6" stroke="#4DA2C6" d="M437.085,62.007L155.36,111.958l295.36,184.783L437.085,62.007z"/>
	<path fill="#428CC0" stroke="#428CC0" d="M450.721,296.741L155.36,111.958L93.732,242.067L450.721,296.741z"/>
	<path fill="#357FBE" stroke="#357FBE" d="M450.721,296.741L93.732,242.067l1.164,221.52L450.721,296.741z"/>
	<path fill="#3487C4" stroke="#3487C4" d="M450.721,296.741L94.896,463.588l318.863-13.325L450.721,296.741z"/>
	<path fill="#3077BF" stroke="#3077BF" d="M413.759,450.263L94.896,463.588l234.911,127.104L413.759,450.263z"/>
	<path fill="#2C5FB5" stroke="#2C5FB5" d="M329.807,590.691L94.896,463.588l-46.719,127.5L329.807,590.691z"/>
	<path fill="#2B54AF" stroke="#2B54AF" d="M329.807,590.691l-281.63,0.396l95.418,157.021L329.807,590.691z"/>
	<path fill="#2C64B7" stroke="#2C64B7" d="M329.807,590.691L143.595,748.109l326.476-53.356L329.807,590.691z"/>
	<path fill="#2C5EB4" stroke="#2C5EB4" d="M470.071,694.753l-326.476,53.356l292.345,95.494L470.071,694.753z"/>
	<path fill="#2A47A9" stroke="#2A47A9" d="M435.94,843.602l-292.345-95.494l77.054,158.847L435.94,843.602z"/>
	<path fill="#2A48A9" stroke="#2A48A9" d="M435.94,843.602l-215.291,63.353l238.329,143.894L435.94,843.602z"/>
	<path fill="#282F9D" stroke="#282F9D" d="M458.977,1050.85L220.649,906.956L118.061,1075.24L458.977,1050.85z"/>
	<path fill="#27379B" stroke="#27379B" d="M458.977,1050.85l-340.917,24.389l252.535,55.357L458.977,1050.85z"/>
	<path fill="#252591" stroke="#252591" d="M370.596,1130.597l-252.535-55.357l-11.502,63.271L370.596,1130.597z"/>
	<path fill="#231586" stroke="#231586" d="M370.596,1130.597l-264.037,7.913l-292.37,84.192L370.596,1130.597z"/>
	<path fill="#9592B9" stroke="#9592B9" d="M178.117-354.719l-394.3,31.994l385.686,166.903L178.117-354.719z"/>
	<path fill="#8A7CAC" stroke="#8A7CAC" d="M169.503-155.823l-385.686-166.903l-10.134,155.919L169.503-155.823z"/>
	<path fill="#7975A9" stroke="#7975A9" d="M169.503-155.823l-395.82-10.984l46.738,150.9L169.503-155.823z"/>
	<path fill="#6F80AD" stroke="#6F80AD" d="M169.503-155.823L-179.579-15.907L76.827,10.005L169.503-155.823z"/>
	<path fill="#5D6CA6" stroke="#5D6CA6" d="M76.827,10.005l-256.405-25.912L-66.74,153.465L76.827,10.005z"/>
	<path fill="#567AAF" stroke="#567AAF" d="M76.827,10.005L-66.74,153.465l222.101-41.507L76.827,10.005z"/>
	<path fill="#4876B2" stroke="#4876B2" d="M155.36,111.958L-66.74,153.465l160.472,88.602L155.36,111.958z"/>
	<path fill="#3B62AC" stroke="#3B62AC" d="M93.732,242.067L-66.74,153.465l-71.774,163.41L93.732,242.067z"/>
	<path fill="#3361B0" stroke="#3361B0" d="M93.732,242.067l-232.246,74.808l233.41,146.712L93.732,242.067z"/>
	<path fill="#2F4EA7" stroke="#2F4EA7" d="M94.896,463.588l-233.41-146.712l-70.67,126.538L94.896,463.588z"/>
	<path fill="#2B45A3" stroke="#2B45A3" d="M94.896,463.588l-304.081-20.174l21.382,132.731L94.896,463.588z"/>
	<path fill="#2A47A8" stroke="#2A47A8" d="M94.896,463.588l-282.698,112.557l235.979,14.943L94.896,463.588z"/>
	<path fill="#28349E" stroke="#28349E" d="M48.177,591.088l-235.979-14.943l64.739,155.89L48.177,591.088z"/>
	<path fill="#2938A1" stroke="#2938A1" d="M48.177,591.088l-171.241,140.947l266.659,16.074L48.177,591.088z"/>
	<path fill="#272096" stroke="#272096" d="M143.595,748.109l-266.659-16.074l-11.481,157.671L143.595,748.109z"/>
	<path fill="#27299B" stroke="#27299B" d="M143.595,748.109l-278.139,141.596l355.193,17.25L143.595,748.109z"/>
	<path fill="#250F8E" stroke="#250F8E" d="M220.649,906.956l-355.193-17.25l-5.552,103.129L220.649,906.956z"/>
	<path fill="#251390" stroke="#251390" d="M220.649,906.956l-360.746,85.879l258.158,82.405L220.649,906.956z"/>
	<path fill="#230B88" stroke="#230B88" d="M118.061,1075.24l-258.158-82.405l246.656,145.676L118.061,1075.24z"/>
	<path fill="#22007D" stroke="#22007D" d="M106.559,1138.51l-246.656-145.676l-45.714,229.868L106.559,1138.51z"/>
	<path fill="#9080A1" stroke="#9080A1" d="M-216.183-322.726l-194.633-8.632l184.499,164.551L-216.183-322.726z"/>
	<path fill="#897E98" stroke="#897E98" d="M-226.317-166.807l-184.499-164.551l-96.308,156.889L-226.317-166.807z"/>
	<path fill="#7A7894" stroke="#7A7894" d="M-226.317-166.807l-280.808-7.661l112.176,106.174L-226.317-166.807z"/>
	<path fill="#727499" stroke="#727499" d="M-226.317-166.807l-168.632,98.512l215.37,52.388L-226.317-166.807z"/>
	<path fill="#626E92" stroke="#626E92" d="M-179.579-15.907l-215.37-52.388l11.424,172.937L-179.579-15.907z"/>
	<path fill="#56699B" stroke="#56699B" d="M-179.579-15.907l-203.946,120.549l316.784,48.822L-179.579-15.907z"/>
	<path fill="#41619A" stroke="#41619A" d="M-66.74,153.465l-316.784-48.822l18.589,220.703L-66.74,153.465z"/>
	<path fill="#355CA2" stroke="#355CA2" d="M-66.74,153.465l-298.195,171.881l226.421-8.47L-66.74,153.465z"/>
	<path fill="#2F539D" stroke="#2F539D" d="M-138.514,316.875l-226.421,8.47l155.751,118.068L-138.514,316.875z"/>
	<path fill="#2C4E96" stroke="#2C4E96" d="M-209.184,443.414l-155.751-118.068l3.202,154.026L-209.184,443.414z"/>
	<path fill="#294598" stroke="#294598" d="M-209.184,443.414l-152.549,35.958l173.931,96.773L-209.184,443.414z"/>
	<path fill="#264094" stroke="#264094" d="M-187.802,576.144l-173.931-96.773l38.158,129.616L-187.802,576.144z"/>
	<path fill="#263494" stroke="#263494" d="M-187.802,576.144l-135.774,32.843l200.512,123.047L-187.802,576.144z"/>
	<path fill="#242B8B" stroke="#242B8B" d="M-123.064,732.034l-200.512-123.047L-385.655,769.1L-123.064,732.034z"/>
	<path fill="#241E89" stroke="#241E89" d="M-123.064,732.034L-385.655,769.1l251.11,120.605L-123.064,732.034z"/>
	<path fill="#22167E" stroke="#22167E" d="M-134.544,889.705L-385.655,769.1l-49.759,130.498L-134.544,889.705z"/>
	<path fill="#220C7F" stroke="#220C7F" d="M-134.544,889.705l-300.87,9.893l295.317,93.236L-134.544,889.705z"/>
	<path fill="#200775" stroke="#200775" d="M-140.097,992.835l-295.317-93.236l2.019,101.586L-140.097,992.835z"/>
	<path fill="#200071" stroke="#200071" d="M-140.097,992.835l-293.299,8.35l112.858,206.236L-140.097,992.835z"/>
	<path fill="#200072" stroke="#200072" d="M-140.097,992.835l-180.441,214.586l134.727,15.282L-140.097,992.835z"/>
	<path fill="#243D87" stroke="#243D87" d="M-507.125-174.468l73.729,1175.653l-2.019-101.586L-507.125-174.468z"/>
	<path fill="#2A508E" stroke="#2A508E" d="M-507.125-174.468l71.71,1074.067l73.681-420.227L-507.125-174.468z"/>
	<path fill="#3D6090" stroke="#3D6090" d="M-507.125-174.468l145.391,653.84l-3.202-154.026L-507.125-174.468z"/>
	<path fill="#53698C" stroke="#53698C" d="M-507.125-174.468l142.189,499.814l-18.589-220.703L-507.125-174.468z"/>
	<path fill="#6A718C" stroke="#6A718C" d="M-507.125-174.468l123.6,279.111l-11.424-172.937L-507.125-174.468z"/>
	<path fill="#232A82" stroke="#232A82" d="M-361.734,479.371l-73.681,420.227l49.759-130.498L-361.734,479.371z"/>
	<path fill="#24378B" stroke="#24378B" d="M-361.734,479.371L-385.655,769.1l62.079-160.112L-361.734,479.371z"/>
</g>
</svg>
